<svg width="803" height="610" viewBox="0 0 803 610" fill="none" xmlns="http://www.w3.org/2000/svg">
<g clip-path="url(#clip0_168_4773)">
<path opacity="0.3" d="M412.17 598.932L696.376 434.854L412.17 270.767L127.973 434.854L412.17 598.932Z" fill="#2647C8"/>
<path d="M137.665 345.767V381.93L412.17 540.421V504.257L137.665 345.767Z" fill="#D3DDF7"/>
<path d="M686.684 345.767V381.93L412.17 540.421V504.257L686.684 345.767Z" fill="#E2E9FA"/>
<path d="M412.17 504.257L686.684 345.767L412.17 187.286L137.665 345.767L412.17 504.257Z" fill="#F0F4FC"/>
<path opacity="0.3" d="M354.095 229.279L201.453 316.536C198.132 318.434 198.122 323.217 201.433 325.124L439.097 462.343C445.168 465.848 452.633 465.857 458.713 462.381L611.356 375.124C614.677 373.226 614.686 368.443 611.375 366.536L373.712 229.327C367.641 225.822 360.176 225.812 354.095 229.288V229.279Z" fill="#2647C8"/>
<path d="M661.704 140.52L419.47 0.668058C416.198 -1.22 412.112 1.14249 412.112 4.91862L367.05 187.47C367.05 191.285 369.083 194.799 372.385 196.707L614.618 336.559C617.891 338.447 620.437 336.869 621.977 332.308L667.039 149.757C667.039 145.942 665.005 142.428 661.704 140.52Z" fill="#6E8FE4"/>
<path d="M658.567 142.602L416.333 2.74984C413.061 0.861784 408.975 3.22428 408.975 7.0004L363.913 189.552C363.913 193.367 365.946 196.881 369.248 198.789L611.481 338.641C614.754 340.529 617.775 336.859 618.84 334.39L663.902 151.839C663.902 148.024 661.868 144.509 658.567 142.602Z" fill="#02126A"/>
<path d="M654.306 149.109L417.67 12.0837C416.391 11.3382 414.755 12.0353 414.397 13.4683L371.184 187.209C370.846 188.574 371.446 189.997 372.666 190.704L609.342 327.826C610.62 328.571 612.256 327.874 612.614 326.441L655.778 152.604C656.117 151.239 655.507 149.815 654.297 149.109H654.306Z" fill="#02126A"/>
<path d="M354.095 207.59L198.974 289.416C198.974 289.416 198.122 301.528 201.433 303.436L439.097 440.654C445.167 444.159 452.633 444.169 458.713 440.693L611.355 353.435C617.668 349.524 613.854 339.386 613.854 339.386L373.712 207.638C367.641 204.133 360.176 204.114 354.095 207.6V207.59Z" fill="url(#paint0_linear_168_4773)"/>
<path d="M354.095 198.198L201.453 285.456C198.132 287.353 198.122 292.137 201.433 294.044L439.097 431.262C445.168 434.767 452.633 434.777 458.713 431.301L611.356 344.044C614.677 342.146 614.686 337.363 611.375 335.455L373.712 198.247C367.641 194.742 360.176 194.732 354.095 198.208V198.198Z" fill="white"/>
<path d="M340.559 311.191L300.329 334.187C299.458 334.69 299.448 335.949 300.329 336.453L362.974 372.616C364.571 373.536 366.547 373.546 368.144 372.626L408.374 349.63C409.246 349.127 409.256 347.868 408.374 347.365L345.73 311.201C344.132 310.281 342.157 310.271 340.559 311.191Z" fill="#D3DDF7"/>
<path d="M370.923 211.531L384.072 219.122C384.595 219.422 384.595 220.177 384.072 220.477L377.536 224.234C377.013 224.534 376.365 224.534 375.842 224.234L362.693 216.643C362.17 216.343 362.17 215.588 362.693 215.287L369.229 211.531C369.752 211.231 370.4 211.231 370.923 211.531Z" fill="#D3DDF7"/>
<path d="M390.191 223.014L403.34 230.605C403.862 230.905 403.862 231.66 403.34 231.961L396.804 235.717C396.281 236.017 395.632 236.017 395.11 235.717L381.961 228.126C381.438 227.826 381.438 227.071 381.961 226.771L388.497 223.014C389.019 222.714 389.668 222.714 390.191 223.014Z" fill="#D3DDF7"/>
<path d="M409.536 233.878L422.685 241.469C423.208 241.769 423.208 242.524 422.685 242.824L416.149 246.581C415.627 246.881 414.978 246.881 414.455 246.581L401.306 238.99C400.783 238.69 400.783 237.934 401.306 237.634L407.842 233.878C408.365 233.577 409.013 233.577 409.536 233.878Z" fill="#D3DDF7"/>
<path d="M429.463 245.109L442.611 252.7C443.134 253 443.134 253.756 442.611 254.056L436.076 257.812C435.553 258.113 434.904 258.113 434.381 257.812L421.233 250.221C420.71 249.921 420.71 249.166 421.233 248.866L427.768 245.109C428.291 244.809 428.94 244.809 429.463 245.109Z" fill="#D3DDF7"/>
<path d="M448.605 255.769L461.753 263.36C462.276 263.661 462.276 264.416 461.753 264.716L455.218 268.473C454.695 268.773 454.046 268.773 453.523 268.473L440.375 260.882C439.852 260.582 439.852 259.826 440.375 259.526L446.91 255.769C447.433 255.469 448.082 255.469 448.605 255.769Z" fill="#D3DDF7"/>
<path d="M467.204 267.253L480.353 274.844C480.876 275.144 480.876 275.899 480.353 276.199L473.817 279.956C473.295 280.256 472.646 280.256 472.123 279.956L458.974 272.365C458.452 272.065 458.452 271.31 458.974 271.009L465.51 267.253C466.033 266.953 466.682 266.953 467.204 267.253Z" fill="#D3DDF7"/>
<path d="M486.695 278L499.844 285.591C500.367 285.891 500.367 286.646 499.844 286.947L493.308 290.703C492.785 291.003 492.137 291.003 491.614 290.703L478.465 283.112C477.942 282.812 477.942 282.057 478.465 281.757L485.001 278C485.524 277.7 486.172 277.7 486.695 278Z" fill="#D3DDF7"/>
<path d="M505.886 289.425L519.034 297.016C519.557 297.316 519.557 298.072 519.034 298.372L512.499 302.129C511.976 302.429 511.327 302.429 510.804 302.129L497.656 294.538C497.133 294.237 497.133 293.482 497.656 293.182L504.191 289.425C504.714 289.125 505.363 289.125 505.886 289.425Z" fill="#D3DDF7"/>
<path d="M524.757 300.56L537.905 308.151C538.428 308.451 538.428 309.206 537.905 309.507L531.37 313.263C530.847 313.563 530.198 313.563 529.675 313.263L516.527 305.672C516.004 305.372 516.004 304.617 516.527 304.317L523.062 300.56C523.585 300.26 524.234 300.26 524.757 300.56Z" fill="#D3DDF7"/>
<path d="M544.654 312.024L557.802 319.615C558.325 319.915 558.325 320.67 557.802 320.97L551.267 324.727C550.744 325.027 550.095 325.027 549.572 324.727L536.424 317.136C535.901 316.836 535.901 316.081 536.424 315.781L542.959 312.024C543.482 311.724 544.131 311.724 544.654 312.024Z" fill="#D3DDF7"/>
<path d="M563.98 322.868L577.128 330.459C577.651 330.759 577.651 331.515 577.128 331.815L570.593 335.571C570.07 335.872 569.421 335.872 568.898 335.571L555.75 327.98C555.227 327.68 555.227 326.925 555.75 326.625L562.285 322.868C562.808 322.568 563.457 322.568 563.98 322.868Z" fill="#D3DDF7"/>
<path d="M344.171 225.841L353.079 220.622C354.231 219.945 355.664 219.945 356.826 220.613L365.53 225.638C366.75 226.345 366.769 228.088 365.569 228.823L356.913 234.139C355.751 234.856 354.289 234.875 353.098 234.187L344.171 229.046C342.941 228.339 342.931 226.558 344.161 225.841H344.171Z" fill="#D3DDF7"/>
<path d="M364.126 237.325L373.034 232.106C374.186 231.428 375.619 231.428 376.781 232.096L385.485 237.121C386.705 237.828 386.725 239.571 385.524 240.307L376.868 245.622C375.706 246.339 374.244 246.358 373.063 245.68L364.136 240.539C362.906 239.832 362.896 238.051 364.126 237.334V237.325Z" fill="#D3DDF7"/>
<path d="M383.491 248.188L392.399 242.969C393.551 242.291 394.984 242.291 396.146 242.96L404.85 247.985C406.07 248.692 406.089 250.434 404.889 251.17L396.233 256.486C395.071 257.202 393.609 257.222 392.428 256.544L383.5 251.403C382.271 250.696 382.261 248.914 383.491 248.198V248.188Z" fill="#D3DDF7"/>
<path d="M404.095 259.41L413.003 254.191C414.155 253.513 415.588 253.513 416.75 254.181L425.454 259.207C426.674 259.913 426.694 261.656 425.493 262.392L416.837 267.708C415.675 268.424 414.213 268.444 413.032 267.756L404.105 262.615C402.875 261.908 402.865 260.126 404.095 259.41Z" fill="#D3DDF7"/>
<path d="M422.249 270.08L431.157 264.861C432.309 264.183 433.742 264.183 434.904 264.852L443.609 269.877C444.829 270.584 444.848 272.326 443.647 273.062L434.991 278.378C433.829 279.094 432.367 279.114 431.176 278.426L422.249 273.285C421.02 272.578 421.01 270.797 422.24 270.08H422.249Z" fill="#D3DDF7"/>
<path d="M440.694 281.505L449.602 276.286C450.754 275.609 452.187 275.609 453.349 276.277L462.054 281.302C463.274 282.009 463.293 283.752 462.092 284.487L453.436 289.803C452.274 290.519 450.812 290.539 449.621 289.861L440.694 284.72C439.465 284.013 439.455 282.231 440.685 281.515L440.694 281.505Z" fill="#D3DDF7"/>
<path d="M460.408 292.301L469.315 287.082C470.468 286.404 471.901 286.404 473.062 287.072L481.767 292.098C482.987 292.804 483.006 294.547 481.806 295.283L473.15 300.599C471.988 301.315 470.526 301.335 469.335 300.657L460.408 295.516C459.178 294.809 459.168 293.027 460.398 292.311L460.408 292.301Z" fill="#D3DDF7"/>
<path d="M479.695 303.242L488.603 298.023C489.755 297.346 491.188 297.346 492.35 298.014L501.054 303.039C502.274 303.746 502.293 305.488 501.093 306.224L492.437 311.54C491.275 312.256 489.813 312.276 488.622 311.598L479.695 306.457C478.465 305.75 478.455 303.968 479.685 303.252L479.695 303.242Z" fill="#D3DDF7"/>
<path d="M498.663 314.871L507.57 309.652C508.723 308.974 510.156 308.974 511.317 309.642L520.022 314.667C521.242 315.374 521.261 317.117 520.061 317.853L511.405 323.168C510.243 323.885 508.781 323.904 507.59 323.226L498.663 318.085C497.433 317.378 497.423 315.597 498.653 314.88L498.663 314.871Z" fill="#D3DDF7"/>
<path d="M519.325 327.041L528.232 321.823C529.385 321.145 530.818 321.145 531.98 321.813L540.684 326.838C541.904 327.535 541.923 329.288 540.723 330.023L532.067 335.339C530.905 336.056 529.443 336.075 528.252 335.388L519.325 330.246C518.095 329.539 518.085 327.758 519.315 327.041H519.325Z" fill="#D3DDF7"/>
<path d="M538.002 337.179L546.91 331.96C548.062 331.282 549.495 331.282 550.657 331.95L559.361 336.975C560.581 337.682 560.601 339.425 559.4 340.161L550.744 345.477C549.582 346.193 548.12 346.212 546.929 345.525L538.002 340.384C536.772 339.677 536.763 337.895 537.992 337.179H538.002Z" fill="#D3DDF7"/>
<path d="M324.322 236.637L333.23 231.418C334.382 230.741 335.815 230.741 336.977 231.409L345.681 236.434C346.901 237.131 346.921 238.883 345.72 239.619L337.064 244.935C335.902 245.651 334.44 245.671 333.249 244.993L324.322 239.852C323.092 239.145 323.083 237.363 324.312 236.647L324.322 236.637Z" fill="#D3DDF7"/>
<path d="M344.268 248.12L353.175 242.902C354.327 242.224 355.76 242.224 356.922 242.892L365.627 247.917C366.847 248.624 366.866 250.367 365.666 251.103L357.01 256.418C355.848 257.135 354.386 257.154 353.204 256.476L344.277 251.335C343.048 250.628 343.038 248.847 344.268 248.13V248.12Z" fill="#D3DDF7"/>
<path d="M363.642 258.984L372.55 253.765C373.702 253.087 375.135 253.087 376.297 253.755L385.001 258.781C386.221 259.487 386.241 261.23 385.04 261.966L376.384 267.282C375.222 267.998 373.76 268.018 372.579 267.34L363.652 262.198C362.422 261.492 362.412 259.71 363.642 258.994V258.984Z" fill="#D3DDF7"/>
<path d="M384.246 270.206L393.154 264.987C394.306 264.309 395.739 264.309 396.901 264.977L405.605 270.003C406.825 270.709 406.845 272.452 405.644 273.188L396.988 278.504C395.826 279.22 394.364 279.24 393.183 278.552L384.256 273.411C383.026 272.704 383.016 270.922 384.246 270.206Z" fill="#D3DDF7"/>
<path d="M402.401 280.876L411.308 275.657C412.461 274.979 413.894 274.979 415.055 275.647L423.76 280.672C424.98 281.379 424.999 283.122 423.799 283.858L415.143 289.174C413.981 289.89 412.519 289.909 411.337 289.232L402.41 284.09C401.181 283.384 401.171 281.602 402.401 280.885V280.876Z" fill="#D3DDF7"/>
<path d="M420.845 292.301L429.753 287.082C430.905 286.404 432.338 286.404 433.5 287.072L442.205 292.098C443.425 292.804 443.444 294.547 442.243 295.283L433.587 300.599C432.426 301.315 430.963 301.335 429.782 300.657L420.855 295.516C419.625 294.809 419.616 293.027 420.845 292.311V292.301Z" fill="#D3DDF7"/>
<path d="M440.549 303.097L449.457 297.878C450.609 297.2 452.042 297.2 453.204 297.868L461.908 302.894C463.128 303.591 463.148 305.343 461.947 306.079L453.291 311.395C452.129 312.111 450.667 312.131 449.486 311.443L440.559 306.302C439.329 305.595 439.319 303.813 440.549 303.097Z" fill="#D3DDF7"/>
<path d="M459.846 314.038L468.754 308.819C469.906 308.141 471.339 308.141 472.501 308.809L481.205 313.835C482.425 314.532 482.445 316.284 481.244 317.02L472.588 322.336C471.426 323.052 469.964 323.072 468.773 322.384L459.846 317.243C458.616 316.536 458.607 314.754 459.836 314.038H459.846Z" fill="#D3DDF7"/>
<path d="M478.804 325.666L487.712 320.448C488.864 319.77 490.297 319.77 491.459 320.438L500.163 325.463C501.383 326.17 501.403 327.913 500.202 328.648L491.546 333.964C490.384 334.681 488.922 334.7 487.731 334.013L478.804 328.871C477.574 328.164 477.565 326.383 478.794 325.666H478.804Z" fill="#D3DDF7"/>
<path d="M499.466 337.837L508.374 332.618C509.526 331.941 510.959 331.941 512.121 332.609L520.825 337.634C522.045 338.341 522.065 340.084 520.864 340.819L512.208 346.135C511.046 346.851 509.584 346.871 508.393 346.193L499.466 341.052C498.236 340.345 498.227 338.563 499.456 337.847L499.466 337.837Z" fill="#D3DDF7"/>
<path d="M518.153 347.975L527.061 342.756C528.213 342.078 529.646 342.078 530.808 342.746L539.512 347.771C540.732 348.478 540.752 350.221 539.551 350.957L530.895 356.272C529.733 356.989 528.271 357.008 527.08 356.33L518.153 351.189C516.924 350.482 516.914 348.701 518.143 347.984L518.153 347.975Z" fill="#D3DDF7"/>
<path d="M304.463 247.433L313.371 242.214C314.523 241.536 315.956 241.536 317.118 242.204L325.823 247.229C327.043 247.936 327.062 249.679 325.861 250.415L317.205 255.731C316.043 256.447 314.581 256.466 313.39 255.779L304.463 250.638C303.234 249.931 303.224 248.149 304.454 247.433H304.463Z" fill="#D3DDF7"/>
<path d="M324.419 258.916L333.327 253.697C334.479 253.02 335.912 253.02 337.074 253.688L345.778 258.713C346.998 259.42 347.017 261.162 345.817 261.898L337.161 267.214C335.999 267.93 334.537 267.95 333.356 267.272L324.428 262.131C323.199 261.424 323.189 259.642 324.419 258.926V258.916Z" fill="#D3DDF7"/>
<path d="M343.784 269.78L352.691 264.561C353.843 263.883 355.276 263.883 356.438 264.551L365.143 269.576C366.363 270.283 366.382 272.026 365.182 272.762L356.526 278.078C355.364 278.794 353.902 278.813 352.72 278.126L343.793 272.985C342.564 272.278 342.554 270.496 343.784 269.78Z" fill="#D3DDF7"/>
<path d="M364.388 281.002L373.295 275.783C374.447 275.105 375.88 275.105 377.042 275.773L385.747 280.798C386.967 281.505 386.986 283.248 385.786 283.984L377.129 289.299C375.968 290.016 374.506 290.035 373.324 289.348L364.397 284.207C363.168 283.5 363.158 281.718 364.388 281.002Z" fill="#D3DDF7"/>
<path d="M382.542 291.671L391.45 286.453C392.602 285.775 394.035 285.775 395.197 286.443L403.901 291.468C405.121 292.175 405.141 293.918 403.94 294.654L395.284 299.969C394.122 300.686 392.66 300.705 391.469 300.027L382.542 294.886C381.312 294.179 381.303 292.398 382.532 291.681L382.542 291.671Z" fill="#D3DDF7"/>
<path d="M400.987 303.097L409.895 297.878C411.047 297.2 412.48 297.2 413.642 297.868L422.346 302.893C423.566 303.6 423.585 305.343 422.385 306.079L413.729 311.395C412.567 312.111 411.105 312.13 409.924 311.453L400.996 306.311C399.767 305.604 399.757 303.823 400.987 303.106V303.097Z" fill="#D3DDF7"/>
<path d="M420.7 313.893L429.608 308.674C430.76 307.996 432.193 307.996 433.355 308.664L442.059 313.689C443.279 314.396 443.299 316.139 442.098 316.875L433.442 322.19C432.28 322.907 430.818 322.926 429.627 322.249L420.7 317.107C419.471 316.4 419.461 314.619 420.69 313.902L420.7 313.893Z" fill="#D3DDF7"/>
<path d="M439.987 324.834L448.895 319.615C450.047 318.937 451.48 318.937 452.642 319.605L461.347 324.63C462.567 325.337 462.586 327.08 461.385 327.816L452.729 333.131C451.568 333.848 450.105 333.867 448.915 333.189L439.987 328.048C438.758 327.341 438.748 325.56 439.978 324.843L439.987 324.834Z" fill="#D3DDF7"/>
<path d="M458.955 336.462L467.863 331.243C469.015 330.566 470.448 330.566 471.61 331.234L480.314 336.259C481.534 336.966 481.554 338.708 480.353 339.444L471.697 344.76C470.535 345.476 469.073 345.496 467.882 344.808L458.955 339.667C457.726 338.96 457.716 337.179 458.945 336.462H458.955Z" fill="#D3DDF7"/>
<path d="M479.617 348.633L488.525 343.414C489.677 342.736 491.11 342.736 492.272 343.404L500.977 348.43C502.197 349.136 502.216 350.879 501.015 351.615L492.359 356.931C491.197 357.647 489.735 357.667 488.544 356.979L479.617 351.838C478.388 351.131 478.378 349.349 479.608 348.633H479.617Z" fill="#D3DDF7"/>
<path d="M498.304 358.77L507.212 353.552C508.364 352.874 509.797 352.874 510.959 353.542L519.664 358.567C520.884 359.274 520.903 361.017 519.702 361.752L511.046 367.068C509.884 367.785 508.422 367.804 507.231 367.117L498.304 361.975C497.075 361.268 497.065 359.487 498.295 358.77H498.304Z" fill="#D3DDF7"/>
<path d="M284.614 258.229L293.522 253.01C294.674 252.332 296.107 252.332 297.269 253L305.974 258.025C307.194 258.722 307.213 260.475 306.012 261.211L297.356 266.526C296.195 267.243 294.733 267.262 293.551 266.585L284.624 261.443C283.394 260.736 283.385 258.955 284.614 258.238V258.229Z" fill="#D3DDF7"/>
<path d="M304.56 269.712L313.468 264.493C314.62 263.815 316.053 263.815 317.215 264.483L325.919 269.509C327.139 270.215 327.159 271.958 325.958 272.694L317.302 278.01C316.14 278.726 314.678 278.746 313.487 278.068L304.56 272.927C303.33 272.22 303.321 270.438 304.55 269.722L304.56 269.712Z" fill="#D3DDF7"/>
<path d="M323.935 280.575L332.842 275.357C333.994 274.679 335.427 274.679 336.589 275.347L345.294 280.372C346.514 281.079 346.533 282.822 345.333 283.558L336.677 288.873C335.515 289.59 334.053 289.609 332.871 288.922L323.944 283.78C322.715 283.074 322.705 281.292 323.935 280.575Z" fill="#D3DDF7"/>
<path d="M344.539 291.798L353.446 286.579C354.608 285.901 356.032 285.901 357.193 286.569L365.898 291.594C367.118 292.301 367.137 294.044 365.937 294.78L357.281 300.095C356.119 300.812 354.657 300.831 353.466 300.153L344.539 295.012C343.309 294.305 343.299 292.524 344.529 291.807L344.539 291.798Z" fill="#D3DDF7"/>
<path d="M364.387 303.649L373.295 298.43C374.447 297.752 375.88 297.752 377.042 298.42L422.346 324.582C423.566 325.289 423.585 327.032 422.385 327.768L413.729 333.083C412.567 333.8 411.105 333.819 409.924 333.132L364.397 306.854C363.167 306.147 363.158 304.365 364.387 303.649Z" fill="#D3DDF7"/>
<path d="M420.138 335.63L429.046 330.411C430.198 329.733 431.631 329.733 432.793 330.401L441.498 335.426C442.718 336.133 442.737 337.876 441.536 338.612L432.88 343.927C431.719 344.644 430.256 344.663 429.066 343.985L420.138 338.844C418.909 338.137 418.899 336.356 420.129 335.639L420.138 335.63Z" fill="#D3DDF7"/>
<path d="M439.106 347.258L448.014 342.039C449.166 341.362 450.599 341.362 451.761 342.03L460.466 347.055C461.686 347.762 461.705 349.504 460.504 350.24L451.848 355.556C450.686 356.272 449.224 356.292 448.033 355.604L439.106 350.463C437.877 349.756 437.867 347.975 439.097 347.258H439.106Z" fill="#D3DDF7"/>
<path d="M459.768 359.429L468.676 354.21C469.828 353.532 471.261 353.532 472.423 354.2L481.128 359.225C482.348 359.932 482.367 361.675 481.166 362.411L472.51 367.727C471.349 368.443 469.886 368.462 468.696 367.785L459.768 362.643C458.539 361.937 458.529 360.155 459.759 359.438L459.768 359.429Z" fill="#D3DDF7"/>
<path d="M478.446 369.566L487.353 364.347C488.506 363.67 489.939 363.67 491.101 364.338L499.805 369.363C501.025 370.06 501.044 371.813 499.844 372.548L491.188 377.864C490.026 378.581 488.564 378.6 487.373 377.912L478.446 372.771C477.216 372.064 477.206 370.283 478.436 369.566H478.446Z" fill="#D3DDF7"/>
<path d="M590.666 150.891L463.34 77.1617C462.653 76.7623 461.767 77.1368 461.58 77.9106L460.144 85.0127C459.957 85.7492 460.282 86.5106 460.943 86.8975L588.294 160.677C588.981 161.076 589.867 160.702 590.054 159.928L591.465 152.776C591.652 152.04 591.315 151.278 590.666 150.891Z" fill="#C5D2F4"/>
<path d="M585.386 170.325L458.06 96.5956C457.373 96.1962 456.487 96.5706 456.3 97.3445L455.601 101.089C455.414 101.825 455.738 102.587 456.4 102.974L583.751 176.753C584.437 177.153 585.323 176.778 585.511 176.004L586.197 172.21C586.384 171.473 586.06 170.712 585.398 170.325H585.386Z" fill="#C5D2F4"/>
<path d="M538.242 159.017L454.952 110.737C454.265 110.338 453.379 110.712 453.192 111.486L452.493 115.231C452.306 115.967 452.63 116.729 453.292 117.116L536.595 165.445C537.281 165.844 538.168 165.47 538.355 164.696L539.041 160.901C539.228 160.165 538.891 159.404 538.242 159.017Z" fill="#C5D2F4"/>
<path d="M569.225 223.54L441.899 149.811C441.213 149.411 440.326 149.786 440.139 150.56L438.704 157.662C438.517 158.398 438.841 159.16 439.503 159.547L566.854 233.326C567.54 233.726 568.426 233.351 568.614 232.577L570.024 225.425C570.211 224.689 569.874 223.927 569.225 223.54Z" fill="#C5D2F4"/>
<path d="M563.945 242.975L436.619 169.245C435.933 168.846 435.047 169.22 434.859 169.994L434.16 173.738C433.973 174.475 434.298 175.236 434.959 175.623L562.31 249.403C562.997 249.802 563.883 249.428 564.07 248.654L564.757 244.859C564.944 244.123 564.619 243.361 563.958 242.975H563.945Z" fill="#C5D2F4"/>
<path d="M516.802 231.666L433.511 183.387C432.825 182.987 431.939 183.362 431.751 184.135L431.052 187.88C430.865 188.616 431.19 189.378 431.851 189.765L515.154 238.094C515.841 238.493 516.727 238.119 516.914 237.345L517.601 233.551C517.788 232.814 517.451 232.053 516.802 231.666Z" fill="#C5D2F4"/>
<path d="M230.805 121.748L229.059 122.987V183.818C229.059 190.195 233.574 198.017 239.097 201.208L291.15 231.499L295.27 229.479C296.805 228.73 297.775 227.169 297.775 225.46V167.33C297.775 160.953 293.239 153.163 287.696 150.014L237.556 121.41C235.431 120.197 232.799 120.329 230.805 121.748Z" fill="#02126A"/>
<path d="M236.08 123.678C230.536 120.529 226 123.172 226 129.549V185.047C226 191.424 230.515 199.246 236.037 202.431L284.679 230.513C290.201 233.699 294.716 231.093 294.716 224.716V168.554C294.716 162.177 290.18 154.386 284.636 151.237L236.08 123.678Z" fill="#2647C8"/>
<g opacity="0.32">
<path d="M250.985 160.167L250.194 159.666C249.092 159.017 248.538 159.197 248.538 160.209V168.353C248.538 169.73 248.068 170.468 247.14 170.568C248.068 171.739 248.533 173.011 248.533 174.387V182.879C248.533 183.739 249.34 184.646 250.975 185.601V190.353L248.902 189.135C245.141 186.919 243.258 183.955 243.263 180.242V172.256C243.263 171.191 242.979 170.489 242.404 170.152L240.674 169.134V164.382L242.409 165.399C242.984 165.737 243.274 165.363 243.274 164.271V156.443C243.279 152.73 245.162 151.981 248.923 154.196L250.99 155.415V160.167H250.985Z" fill="#231F20"/>
<path d="M267.014 195.084L267.805 195.591C268.908 196.239 269.462 196.06 269.462 195.047V186.909C269.462 185.532 269.931 184.794 270.859 184.688C269.931 183.517 269.467 182.246 269.467 180.87V172.378C269.467 171.523 268.655 170.611 267.025 169.651V164.898L269.098 166.117C272.858 168.332 274.741 171.296 274.736 175.004V182.99C274.736 184.055 275.021 184.757 275.596 185.1L277.326 186.118V190.87L275.596 189.852C275.016 189.509 274.731 189.889 274.731 190.975V198.803C274.726 202.516 272.843 203.265 269.082 201.055L267.014 199.837V195.084Z" fill="#231F20"/>
</g>
<path d="M245.542 158.806L242.82 160.167L243.089 166.992C243.089 168.369 242.625 169.107 241.697 169.207C242.625 170.378 243.089 171.65 243.089 173.026V181.518C243.089 182.378 243.896 183.285 245.526 184.245V188.997L242.805 190.358C239.044 188.143 237.815 182.599 237.815 178.886V170.901C237.815 169.835 237.53 169.134 236.955 168.796L235.225 167.778V163.026L236.96 164.044C237.535 164.381 237.825 164.007 237.825 162.915V155.088C237.831 151.374 239.714 150.626 243.474 152.841L245.542 154.059V158.811V158.806Z" fill="#EBE9EC"/>
<path d="M261.571 193.723L262.362 194.23C263.465 194.878 264.018 194.699 264.018 193.686V185.548C264.018 184.171 264.488 183.433 265.416 183.327C264.488 182.156 264.024 180.885 264.029 179.508V171.017C264.029 170.162 263.217 169.25 261.587 168.29L258.87 164.898L261.592 163.537L263.66 164.756C267.42 166.971 269.303 169.935 269.298 173.643V181.629C269.298 182.694 269.583 183.396 270.158 183.739L271.888 184.757V189.509L269.166 190.87C268.586 190.527 269.288 197.447 269.288 197.447C269.288 201.16 264.303 202.299 264.303 202.299L261.571 198.481V193.728V193.723Z" fill="#EBE9EC"/>
<path d="M232.509 164.381H236.591V167.166L233.247 166.486L232.509 164.381Z" fill="#EBE9EC"/>
<path d="M242.82 160.167L242.029 159.666C240.927 159.017 240.373 159.197 240.373 160.209V168.353C240.373 169.73 239.903 170.468 238.975 170.568C239.903 171.739 240.368 173.011 240.368 174.387V182.879C240.368 183.739 241.175 184.646 242.81 185.601V190.353L240.737 189.135C236.976 186.919 235.098 183.955 235.098 180.242V172.256C235.098 171.191 234.814 170.489 234.239 170.152L232.509 169.134V164.382L234.244 165.399C234.819 165.737 235.109 165.363 235.109 164.271V156.443C235.114 152.73 236.997 151.981 240.758 154.196L242.826 155.415V160.167H242.82Z" fill="white"/>
<path d="M258.855 195.084L259.646 195.591C260.748 196.239 261.302 196.06 261.302 195.047V186.909C261.302 185.532 261.771 184.794 262.7 184.688C261.771 183.517 261.307 182.246 261.313 180.87V172.378C261.313 171.523 260.5 170.611 258.87 169.651V164.898L260.943 166.117C264.704 168.332 266.587 171.296 266.582 175.004V182.99C266.582 184.055 266.867 184.757 267.441 185.1L269.171 186.118V190.87L267.441 189.852C266.861 189.509 266.576 189.889 266.576 190.975V198.803C266.571 202.516 264.688 203.265 260.927 201.055L258.86 199.837V195.084H258.855Z" fill="white"/>
<path d="M353.437 138.779L352.819 139.217V160.737C352.819 162.994 354.418 165.758 356.369 166.887L374.782 177.605L376.238 176.893C376.781 176.629 377.124 176.075 377.124 175.468V154.903C377.124 152.646 375.521 149.892 373.559 148.78L355.821 138.663C355.072 138.236 354.138 138.283 353.431 138.784L353.437 138.779Z" fill="#151617"/>
<path d="M355.304 139.46C353.342 138.347 351.738 139.28 351.738 141.538V161.169C351.738 163.427 353.336 166.191 355.288 167.319L372.493 177.256C374.445 178.385 376.043 177.462 376.043 175.205V155.336C376.043 153.078 374.439 150.325 372.477 149.212L355.298 139.46H355.304Z" fill="#02126A"/>
<path d="M356.986 151.364L358.12 152.029L358.073 157.883L356.939 157.219L356.96 154.914L354.935 153.727L354.913 156.032L353.779 155.367L353.827 149.513L354.961 150.177L354.94 152.625L356.965 153.811L356.986 151.364Z" fill="white"/>
<path d="M361.517 155.156L361.475 159.877L360.341 159.212L360.383 154.492L358.943 153.648L358.954 152.519L362.973 154.871L362.962 156L361.522 155.156H361.517Z" fill="white"/>
<path d="M368.337 160.194L366.934 162.588L366.259 162.193L364.919 158.189L364.887 161.871L363.753 161.206L363.801 155.352L365.336 156.253L366.617 160.236L367.962 157.794L369.492 158.69L369.445 164.545L368.311 163.88L368.342 160.194H368.337Z" fill="white"/>
<path d="M370.689 165.278L370.737 159.424L371.871 160.088L371.834 164.777L374.002 166.048L373.991 167.214L370.689 165.278Z" fill="white"/>
<path d="M307.574 55.6271L306.64 56.2917V88.8616C306.64 92.2742 309.061 96.4621 312.015 98.171L339.885 114.39L342.09 113.309C342.913 112.908 343.43 112.069 343.43 111.157V80.0321C343.43 76.6195 341.004 72.4474 338.034 70.7596L311.187 55.4425C310.048 54.7938 308.639 54.8623 307.574 55.6219V55.6271Z" fill="url(#paint1_linear_168_4773)"/>
<path d="M310.396 56.661C307.426 54.9784 305 56.392 305 59.8046V89.5209C305 92.9335 307.421 97.1215 310.375 98.8304L336.42 113.868C339.374 115.577 341.795 114.179 341.795 110.767V80.6862C341.795 77.2736 339.363 73.1015 336.399 71.4137L310.401 56.6557L310.396 56.661Z" fill="url(#paint2_linear_168_4773)"/>
<path d="M315.528 77.5479V75.3538L321.567 78.8138V86.2772C321.567 87.6433 321.209 88.4556 320.496 88.7246C319.784 88.9936 318.867 88.8037 317.748 88.1655C316.356 87.369 315.138 86.1401 314.099 84.4892L315.444 83.4237C316.14 84.563 316.868 85.3542 317.632 85.7919C317.996 86.0029 318.308 86.0398 318.571 85.9133C318.83 85.7814 318.962 85.4386 318.962 84.8847V79.5153L315.528 77.5479Z" fill="white"/>
<path d="M327.032 84.2253C326.784 84.2834 326.657 84.4785 326.657 84.8161C326.657 85.1537 326.81 85.5018 327.111 85.871C327.417 86.2402 328.118 86.8731 329.215 87.7751C330.318 88.6717 331.172 89.5631 331.779 90.444C332.385 91.3248 332.691 92.2795 332.691 93.308C332.691 94.3312 332.301 94.9431 331.52 95.133C330.739 95.3228 329.716 95.0591 328.445 94.326C326.61 93.2763 324.953 91.6571 323.487 89.4734L325.027 88.4924C326.277 90.2857 327.432 91.4883 328.493 92.1001C328.967 92.3744 329.342 92.4852 329.611 92.4377C329.88 92.3902 330.017 92.1951 330.017 91.8522C330.017 91.5094 329.874 91.1507 329.584 90.7868C329.294 90.4176 328.725 89.8901 327.875 89.1939C326.525 88.1021 325.539 87.1263 324.916 86.2613C324.294 85.3963 323.978 84.4205 323.978 83.334C323.978 82.2474 324.373 81.6356 325.164 81.4984C325.956 81.3613 326.942 81.6356 328.129 82.3107C328.904 82.7538 329.679 83.3287 330.449 84.0355C331.225 84.7422 331.9 85.4965 332.475 86.3088L331.161 87.4217C330.154 86.0925 329.115 85.122 328.044 84.5049C327.612 84.257 327.274 84.1621 327.026 84.2253H327.032Z" fill="white"/>
<path d="M392.22 36.5396L391.413 37.1145V65.2328C391.413 68.1812 393.502 71.7995 396.055 73.2711L420.117 87.2748L422.021 86.3412C422.728 85.9931 423.182 85.2758 423.182 84.4846V57.6111C423.182 54.6627 421.082 51.0602 418.519 49.6045L395.338 36.3814C394.357 35.8223 393.138 35.8803 392.215 36.5396H392.22Z" fill="url(#paint3_linear_168_4773)"/>
<path d="M394.663 37.4311C392.099 35.9754 390 37.1991 390 40.1422V65.7973C390 68.7457 392.089 72.364 394.642 73.8356L417.127 86.816C419.679 88.2876 421.768 87.085 421.768 84.1366V58.1704C421.768 55.2219 419.669 51.6195 417.106 50.1637L394.657 37.4206L394.663 37.4311Z" fill="url(#paint4_linear_168_4773)"/>
<path d="M399.594 56.0498C400.159 56.9782 400.433 58.0541 400.417 59.2778C400.396 60.5015 400.09 61.2294 399.489 61.4509C398.887 61.6724 397.98 61.4351 396.767 60.723L395.675 60.0848L395.633 62.8539L393.798 61.7885L393.951 51.8672L396.857 53.555C398.117 54.2882 399.035 55.1215 399.6 56.0446L399.594 56.0498ZM398.186 59.1723C398.408 59.0036 398.524 58.6291 398.534 58.0594C398.545 57.4898 398.407 56.9993 398.123 56.5878C397.838 56.1817 397.395 55.8019 396.794 55.4486L395.749 54.8367L395.696 58.1702L396.931 58.8875C397.542 59.2409 397.959 59.3358 398.186 59.1671V59.1723Z" fill="white"/>
<path d="M407.005 59.4678L408.84 60.5333L408.687 70.4545L406.852 69.3891L406.91 65.486L403.64 63.5819L403.582 67.485L401.746 66.4196L401.899 56.4983L403.735 57.5637L403.671 61.7095L406.942 63.6136L407.005 59.4678Z" fill="white"/>
<path d="M416.51 65.8973C417.079 66.8256 417.348 67.9016 417.332 69.1252C417.311 70.3489 417.005 71.0768 416.404 71.2983C415.803 71.5198 414.896 71.2772 413.682 70.5704L412.591 69.9322L412.548 72.7013L410.713 71.6359L410.866 61.7146L413.772 63.4024C415.033 64.1356 415.95 64.9689 416.515 65.892L416.51 65.8973ZM415.101 69.0197C415.323 68.851 415.444 68.4765 415.449 67.9068C415.46 67.3319 415.323 66.8414 415.038 66.4353C414.753 66.0291 414.31 65.6494 413.709 65.296L412.659 64.6841L412.606 68.0176L413.841 68.7349C414.452 69.0883 414.869 69.1833 415.096 69.0145L415.101 69.0197Z" fill="white"/>
</g>
<g clip-path="url(#clip1_168_4773)">
<path d="M316.229 511.297L314.668 512.406V566.733C314.668 572.425 318.699 579.411 323.634 582.261L370.124 609.311L373.803 607.511C375.172 606.841 376.042 605.446 376.042 603.925V552.009C376.042 546.317 371.99 539.357 367.036 536.547L322.259 510.998C320.36 509.915 318.009 510.035 316.229 511.297Z" fill="url(#paint5_linear_168_4773)"/>
<path d="M320.944 513.023C315.989 510.207 311.938 512.572 311.938 518.263V567.829C311.938 573.52 315.969 580.507 320.904 583.356L364.346 608.435C369.274 611.284 373.312 608.953 373.312 603.261V553.098C373.312 547.406 369.261 540.446 364.306 537.637L320.944 513.023Z" fill="#EFF4FE"/>
<path d="M327.705 558.597C329.671 559.7 331.232 559.919 332.387 559.241L335.104 563.02C333.204 563.904 330.88 563.572 328.117 562.017C325.361 560.463 323.036 558.418 321.15 555.867C319.264 553.317 318.241 550.873 318.088 548.515C317.935 546.164 318.712 544.71 320.433 544.165C322.146 543.614 324.318 544.079 326.948 545.56C329.883 547.214 332.414 549.585 334.526 552.686L332.208 553.782C330.853 551.677 329.233 550.103 327.353 549.04C325.852 548.197 324.59 547.904 323.581 548.177C322.571 548.442 322.113 549.319 322.212 550.793C322.312 552.268 322.89 553.736 323.959 555.197C325.028 556.658 326.277 557.787 327.712 558.597H327.705Z" fill="#2647C8"/>
<path d="M341.785 567.158L341.513 563.073L337.03 560.55L336.844 557.76L341.327 560.284L341.054 556.2L344.588 558.192L344.86 562.277L349.343 564.8L349.529 567.59L345.046 565.066L345.318 569.15L341.785 567.158Z" fill="#2647C8"/>
<path d="M356.748 575.573L356.476 571.488L351.993 568.964L351.807 566.175L356.29 568.699L356.018 564.614L359.551 566.607L359.823 570.691L364.306 573.215L364.492 576.004L360.009 573.481L360.281 577.565L356.748 575.573Z" fill="#2647C8"/>
</g>
<g clip-path="url(#clip2_168_4773)">
<path opacity="0.3" d="M802.677 522.745C802.708 522.664 802.715 522.582 802.733 522.5C802.765 522.362 802.796 522.218 802.803 522.079C802.809 521.966 802.803 521.853 802.803 521.74C802.796 521.627 802.771 521.514 802.752 521.407C802.727 521.288 802.708 521.169 802.664 521.056C802.595 520.867 802.501 520.673 802.382 520.491C802.049 519.969 801.54 519.473 800.824 519.052L727.459 475.593C726.787 475.198 726.008 474.896 725.173 474.695C722.667 474.092 719.678 474.369 717.649 475.543L642.199 519.103C641.483 519.517 640.968 520.007 640.629 520.522C640.509 520.704 640.415 520.893 640.346 521.081C640.302 521.2 640.283 521.313 640.252 521.433C640.227 521.539 640.208 521.652 640.195 521.765C640.189 521.879 640.183 521.985 640.195 522.098C640.202 522.236 640.233 522.381 640.264 522.519C640.283 522.601 640.29 522.682 640.321 522.764C640.396 522.978 640.509 523.185 640.641 523.392C640.685 523.461 640.742 523.53 640.798 523.599C640.918 523.756 641.056 523.907 641.206 524.051C641.269 524.114 641.332 524.177 641.407 524.234C641.64 524.428 641.897 524.623 642.205 524.799L716.582 567.737C719.288 569.3 723.716 569.3 726.423 567.737L800.799 524.799C801.101 524.623 801.358 524.435 801.597 524.234C801.672 524.171 801.735 524.108 801.798 524.045C801.948 523.901 802.087 523.75 802.206 523.593C802.262 523.524 802.319 523.455 802.363 523.386C802.495 523.179 802.608 522.971 802.683 522.758L802.677 522.745Z" fill="#6E8FE4"/>
<path d="M727.459 449.506C724.771 447.91 720.356 447.892 717.649 449.449L642.199 493.009C639.492 494.572 639.492 497.128 642.199 498.692L716.575 541.63C719.282 543.194 723.709 543.194 726.416 541.63L800.793 498.692C803.499 497.128 803.512 494.547 800.824 492.952L727.459 449.506Z" fill="white"/>
<path d="M642.199 493.008L717.649 449.449C720.356 447.885 724.771 447.91 727.459 449.505L736.05 454.592L650.935 503.735L642.205 498.692C639.498 497.128 639.498 494.572 642.205 493.008H642.199Z" fill="#2647C8"/>
<path d="M662.151 489.862C661.31 489.378 661.31 488.587 662.151 488.104C662.993 487.62 664.374 487.62 665.21 488.104C666.051 488.587 666.051 489.378 665.21 489.862C664.368 490.346 662.993 490.346 662.151 489.862Z" fill="white"/>
<path d="M657.252 492.977C656.411 492.493 656.411 491.702 657.252 491.219C658.094 490.735 659.476 490.735 660.311 491.219C661.153 491.702 661.153 492.493 660.311 492.977C659.469 493.461 658.094 493.461 657.252 492.977Z" fill="white"/>
<path d="M652.36 495.929C651.519 495.445 651.519 494.654 652.36 494.17C653.202 493.687 654.583 493.687 655.419 494.17C656.26 494.654 656.26 495.445 655.419 495.929C654.577 496.412 653.202 496.412 652.36 495.929Z" fill="white"/>
<path d="M642.199 495.853L716.575 538.791C719.282 540.355 723.71 540.355 726.416 538.791L800.793 495.853C801.528 495.433 802.043 494.93 802.382 494.396C803.305 495.847 802.784 497.543 800.793 498.692L726.416 541.63C723.71 543.194 719.282 543.194 716.575 541.63L642.199 498.692C640.208 497.543 639.699 495.86 640.629 494.428C640.968 494.949 641.483 495.433 642.199 495.847V495.853Z" fill="#DBE3F8"/>
<path d="M739.071 490.245C738.644 489.604 738.669 488.763 739.134 488.141L745.477 479.682L735.272 482.319C734.524 482.514 733.739 482.213 733.312 481.572C732.621 480.536 733.168 479.123 734.373 478.821L747.568 475.505C748.611 475.242 749.703 475.669 750.294 476.56C750.884 477.452 750.853 478.627 750.206 479.481L742.048 490.333C741.294 491.338 739.768 491.294 739.071 490.245Z" fill="#6E8FE4"/>
<path d="M737.482 500.953C736.873 501.355 736.1 501.418 735.435 501.104L714.471 491.319C712.977 490.622 712.826 488.562 714.195 487.651C714.811 487.243 715.589 487.187 716.255 487.501L737.206 497.31C738.688 498.001 738.839 500.049 737.476 500.953H737.482Z" fill="#6E8FE4"/>
<path d="M711.212 496.243C711.639 496.883 711.608 497.725 711.143 498.34L704.75 506.725L715.011 504.162C715.759 503.974 716.544 504.282 716.971 504.922C717.668 505.971 717.115 507.39 715.897 507.698L702.727 511.008C701.685 511.271 700.592 510.844 700.002 509.953C699.411 509.061 699.443 507.886 700.09 507.032L708.26 496.161C709.008 495.163 710.521 495.207 711.212 496.249V496.243Z" fill="#6E8FE4"/>
</g>
<g clip-path="url(#clip3_168_4773)">
<path opacity="0.02" d="M625.926 547.645C604.653 535.361 569.84 535.361 548.562 547.645C527.289 559.928 527.289 580.029 548.562 592.313C569.835 604.597 604.653 604.597 625.926 592.313C647.199 580.029 647.199 559.928 625.926 547.645Z" fill="#FBFBFD"/>
<path opacity="0.04" d="M625.303 548C604.369 535.916 570.118 535.916 549.184 548C528.25 560.084 528.25 579.862 549.184 591.946C570.118 604.03 604.369 604.03 625.303 591.946C646.238 579.862 646.238 560.084 625.303 548Z" fill="#F7F8FB"/>
<path opacity="0.06" d="M624.681 548.361C604.092 536.472 570.401 536.472 549.812 548.361C529.222 560.251 529.222 579.701 549.812 591.591C570.401 603.48 604.092 603.48 624.681 591.591C645.271 579.701 645.271 560.251 624.681 548.361Z" fill="#F2F4FA"/>
<path opacity="0.08" d="M624.059 548.722C603.814 537.033 570.679 537.033 550.434 548.722C530.189 560.412 530.189 579.54 550.434 591.23C570.679 602.919 603.814 602.919 624.059 591.23C644.304 579.54 644.304 560.412 624.059 548.722Z" fill="#EEF0F8"/>
<path opacity="0.1" d="M623.437 549.084C603.531 537.594 570.963 537.594 551.056 549.084C531.15 560.573 531.15 579.379 551.056 590.868C570.963 602.358 603.531 602.358 623.437 590.868C643.343 579.374 643.343 560.573 623.437 549.078V549.084Z" fill="#EAECF6"/>
<path opacity="0.12" d="M622.815 549.439C603.253 538.144 571.24 538.144 551.684 549.439C532.117 560.734 532.117 579.218 551.679 590.507C571.24 601.802 603.247 601.802 622.809 590.507C642.371 579.212 642.371 560.734 622.809 549.439H622.815Z" fill="#E6E9F4"/>
<path opacity="0.14" d="M622.187 549.8C602.969 538.705 571.518 538.705 552.301 549.8C533.083 560.895 533.083 579.051 552.301 590.146C571.518 601.241 602.969 601.241 622.187 590.146C641.404 579.051 641.404 560.895 622.187 549.8Z" fill="#E1E5F2"/>
<path opacity="0.16" d="M621.565 550.161C602.692 539.266 571.802 539.266 552.923 550.161C534.045 561.062 534.045 578.89 552.923 589.791C571.802 600.691 602.686 600.691 621.565 589.791C640.443 578.896 640.443 561.062 621.565 550.161Z" fill="#DDE1F0"/>
<path opacity="0.18" d="M620.942 550.523C602.408 539.822 572.085 539.822 553.551 550.523C535.017 561.223 535.017 578.729 553.551 589.435C572.085 600.136 602.408 600.136 620.942 589.435C639.476 578.735 639.476 561.223 620.942 550.523Z" fill="#D9DEEF"/>
<path opacity="0.2" d="M620.32 550.884C602.13 540.383 572.363 540.383 554.173 550.884C535.983 561.384 535.983 578.574 554.173 589.074C572.363 599.574 602.13 599.574 620.32 589.074C638.51 578.574 638.51 561.384 620.32 550.884Z" fill="#D5DAED"/>
<path opacity="0.22" d="M619.698 551.239C601.853 540.933 572.646 540.933 554.795 551.239C536.95 561.545 536.95 578.407 554.795 588.707C572.64 599.013 601.847 599.013 619.698 588.707C637.543 578.401 637.543 561.54 619.698 551.239Z" fill="#D1D6EB"/>
<path opacity="0.24" d="M619.076 551.6C601.569 541.494 572.924 541.494 555.423 551.6C537.917 561.706 537.917 578.246 555.423 588.352C572.929 598.458 601.575 598.458 619.076 588.352C636.582 578.246 636.582 561.706 619.076 551.6Z" fill="#CCD3E9"/>
<path opacity="0.25" d="M618.448 551.961C601.286 542.055 573.202 542.055 556.04 551.961C538.878 561.867 538.878 578.085 556.04 587.996C573.202 597.902 601.286 597.902 618.448 587.996C635.61 578.09 635.61 561.873 618.448 551.967V551.961Z" fill="#C8CFE7"/>
<path opacity="0.27" d="M617.826 552.322C601.008 542.611 573.485 542.611 556.662 552.322C539.845 562.034 539.845 577.923 556.662 587.635C573.479 597.346 601.003 597.346 617.826 587.635C634.643 577.923 634.643 562.034 617.826 552.322Z" fill="#C4CBE5"/>
<path opacity="0.29" d="M617.203 552.678C600.725 543.167 573.763 543.167 557.29 552.678C540.811 562.19 540.811 577.757 557.29 587.268C573.768 596.78 600.73 596.78 617.203 587.268C633.682 577.757 633.682 562.19 617.203 552.678Z" fill="#C0C7E4"/>
<path opacity="0.31" d="M616.581 553.039C600.447 543.722 574.046 543.722 557.912 553.039C541.778 562.356 541.778 577.596 557.912 586.913C574.046 596.23 600.447 596.23 616.581 586.913C632.715 577.596 632.715 562.356 616.581 553.039Z" fill="#BCC4E2"/>
<path opacity="0.33" d="M615.959 553.4C600.169 544.283 574.329 544.283 558.534 553.4C542.745 562.517 542.745 577.435 558.534 586.552C574.324 595.669 600.164 595.669 615.959 586.552C631.748 577.435 631.748 562.517 615.959 553.4Z" fill="#B7C0E0"/>
<path opacity="0.35" d="M615.337 553.761C599.886 544.844 574.607 544.844 559.157 553.761C543.706 562.678 543.706 577.279 559.157 586.196C574.607 595.113 599.886 595.113 615.337 586.196C630.787 577.279 630.787 562.684 615.337 553.761Z" fill="#B3BCDE"/>
<path opacity="0.37" d="M614.714 554.117C599.608 545.394 574.891 545.394 559.784 554.117C544.678 562.839 544.678 577.107 559.784 585.829C574.891 594.552 599.608 594.552 614.714 585.829C629.82 577.107 629.82 562.834 614.714 554.117Z" fill="#AFB9DC"/>
<path opacity="0.39" d="M614.087 554.478C599.325 545.956 575.163 545.956 560.401 554.478C545.64 563.001 545.64 576.951 560.401 585.474C575.163 593.996 599.325 593.996 614.087 585.474C628.848 576.951 628.848 563.001 614.087 554.478Z" fill="#ABB5DB"/>
<path opacity="0.41" d="M613.464 554.839C599.042 546.511 575.446 546.511 561.023 554.839C546.601 563.167 546.601 576.79 561.023 585.113C575.446 593.441 599.042 593.441 613.464 585.113C627.887 576.785 627.887 563.162 613.464 554.839Z" fill="#A6B1D9"/>
<path opacity="0.43" d="M612.842 555.2C598.764 547.072 575.729 547.072 561.651 555.2C547.573 563.328 547.573 576.629 561.651 584.757C575.729 592.885 598.764 592.885 612.842 584.757C626.92 576.629 626.92 563.328 612.842 555.2Z" fill="#A2ADD7"/>
<path opacity="0.45" d="M587.247 590.363C606.752 590.363 622.565 581.234 622.565 569.973C622.565 558.712 606.752 549.584 587.247 549.584C567.741 549.584 551.929 558.712 551.929 569.973C551.929 581.234 567.741 590.363 587.247 590.363Z" fill="#9EAAD5"/>
<path opacity="0.47" d="M611.598 555.917C598.208 548.183 576.291 548.183 562.896 555.917C549.501 563.651 549.501 576.301 562.896 584.035C576.291 591.768 598.203 591.768 611.598 584.035C624.993 576.301 624.993 563.651 611.598 555.917Z" fill="#9AA6D3"/>
<path opacity="0.49" d="M610.975 556.278C597.925 548.745 576.574 548.745 563.523 556.278C550.473 563.812 550.473 576.14 563.523 583.674C576.574 591.207 597.925 591.207 610.975 583.674C624.026 576.14 624.026 563.812 610.975 556.278Z" fill="#96A2D1"/>
<path opacity="0.51" d="M587.246 588.835C605.292 588.835 619.92 580.39 619.92 569.973C619.92 559.556 605.292 551.111 587.246 551.111C569.201 551.111 554.573 559.556 554.573 569.973C554.573 580.39 569.201 588.835 587.246 588.835Z" fill="#919FD0"/>
<path opacity="0.53" d="M609.725 556.995C597.358 549.856 577.129 549.856 564.762 556.995C552.395 564.134 552.395 575.812 564.762 582.951C577.124 590.091 597.358 590.091 609.725 582.951C622.087 575.812 622.087 564.134 609.725 556.995Z" fill="#8D9BCE"/>
<path opacity="0.55" d="M609.103 557.356C597.08 550.417 577.407 550.417 565.39 557.356C553.367 564.295 553.367 575.657 565.39 582.596C577.413 589.535 597.086 589.535 609.103 582.596C621.126 575.657 621.126 564.295 609.103 557.356Z" fill="#8997CC"/>
<path opacity="0.57" d="M608.481 557.717C596.803 550.972 577.691 550.972 566.012 557.717C554.334 564.462 554.334 575.496 566.012 582.235C577.691 588.979 596.803 588.979 608.481 582.235C620.159 575.49 620.159 564.456 608.481 557.717Z" fill="#8594CA"/>
<path opacity="0.59" d="M607.858 558.078C596.525 551.534 577.974 551.534 566.635 558.078C555.301 564.623 555.301 575.335 566.635 581.879C577.968 588.424 596.519 588.424 607.858 581.879C619.192 575.335 619.192 564.623 607.858 558.078Z" fill="#8190C8"/>
<path opacity="0.61" d="M607.236 558.434C596.241 552.089 578.252 552.089 567.262 558.434C556.268 564.779 556.268 575.168 567.262 581.512C578.257 587.857 596.247 587.857 607.236 581.512C618.231 575.168 618.231 564.779 607.236 558.434Z" fill="#7C8CC6"/>
<path opacity="0.63" d="M606.608 558.795C595.958 552.645 578.53 552.645 567.879 558.795C557.229 564.945 557.229 575.007 567.879 581.157C578.53 587.307 595.958 587.307 606.608 581.157C617.259 575.007 617.259 564.945 606.608 558.795Z" fill="#7888C5"/>
<path opacity="0.65" d="M605.986 559.156C595.68 553.206 578.813 553.206 568.501 559.156C558.195 565.106 558.195 574.846 568.501 580.796C578.807 586.746 595.675 586.746 605.986 580.796C616.292 574.846 616.292 565.106 605.986 559.156Z" fill="#7485C3"/>
<path opacity="0.67" d="M605.364 559.517C595.397 553.761 579.091 553.761 569.129 559.517C559.162 565.273 559.162 574.685 569.129 580.44C579.096 586.196 595.403 586.196 605.364 580.44C615.331 574.685 615.331 565.273 605.364 559.517Z" fill="#7081C1"/>
<path opacity="0.69" d="M604.742 559.873C595.119 554.317 579.374 554.317 569.751 559.873C560.129 565.429 560.129 574.518 569.751 580.074C579.374 585.629 595.119 585.629 604.742 580.074C614.364 574.518 614.364 565.429 604.742 559.873Z" fill="#6B7DBF"/>
<path opacity="0.71" d="M604.119 560.234C594.841 554.878 579.652 554.878 570.374 560.234C561.096 565.59 561.096 574.357 570.374 579.718C579.652 585.074 594.836 585.074 604.119 579.718C613.398 574.362 613.398 565.595 604.119 560.234Z" fill="#677ABD"/>
<path opacity="0.73" d="M603.497 560.595C594.558 555.434 579.935 555.434 571.002 560.595C562.068 565.756 562.068 574.196 571.002 579.357C579.941 584.518 594.564 584.518 603.497 579.357C612.436 574.196 612.436 565.756 603.497 560.595Z" fill="#6376BC"/>
<path opacity="0.75" d="M602.875 560.956C594.28 555.995 580.219 555.995 571.624 560.956C563.029 565.917 563.029 574.034 571.624 579.001C580.219 583.963 594.28 583.963 602.875 579.001C611.47 574.04 611.47 565.917 602.875 560.956Z" fill="#5F72BA"/>
<path opacity="0.76" d="M602.247 561.312C593.997 556.545 580.491 556.545 572.24 561.312C563.99 566.073 563.99 573.873 572.24 578.634C580.491 583.396 593.997 583.396 602.247 578.634C610.497 573.868 610.497 566.073 602.247 561.312Z" fill="#5B6EB8"/>
<path opacity="0.78" d="M601.625 561.673C593.714 557.106 580.774 557.106 572.868 561.673C564.957 566.24 564.957 573.712 572.868 578.279C580.78 582.846 593.719 582.846 601.625 578.279C609.536 573.712 609.536 566.24 601.625 561.673Z" fill="#566BB6"/>
<path opacity="0.8" d="M601.003 562.034C593.436 557.667 581.057 557.667 573.491 562.034C565.924 566.401 565.924 573.551 573.491 577.918C581.057 582.285 593.436 582.285 601.003 577.918C608.57 573.551 608.57 566.401 601.003 562.034Z" fill="#5267B4"/>
<path opacity="0.82" d="M600.38 562.395C593.158 558.223 581.335 558.223 574.113 562.395C566.89 566.567 566.89 573.39 574.113 577.562C581.335 581.735 593.158 581.735 600.38 577.562C607.603 573.39 607.603 566.567 600.38 562.395Z" fill="#4E63B2"/>
<path opacity="0.84" d="M587.247 580.19C597.016 580.19 604.936 575.616 604.936 569.973C604.936 564.33 597.016 559.756 587.247 559.756C577.477 559.756 569.557 564.33 569.557 569.973C569.557 575.616 577.477 580.19 587.247 580.19Z" fill="#4A60B1"/>
<path opacity="0.86" d="M599.13 563.112C592.591 559.339 581.896 559.339 575.357 563.112C568.818 566.884 568.818 573.062 575.357 576.84C581.896 580.612 592.591 580.612 599.13 576.84C605.67 573.068 605.67 566.89 599.13 563.112Z" fill="#465CAF"/>
<path opacity="0.88" d="M598.508 563.473C592.313 559.895 582.174 559.895 575.98 563.473C569.785 567.051 569.785 572.901 575.98 576.479C582.174 580.057 592.313 580.057 598.508 576.479C604.703 572.901 604.703 567.051 598.508 563.473Z" fill="#4158AD"/>
<path opacity="0.9" d="M597.886 563.834C592.036 560.456 582.458 560.456 576.602 563.834C570.752 567.212 570.752 572.74 576.602 576.118C582.452 579.496 592.03 579.496 597.886 576.118C603.736 572.74 603.736 567.212 597.886 563.834Z" fill="#3D55AB"/>
<path opacity="0.92" d="M597.264 564.19C591.752 561.012 582.735 561.012 577.23 564.19C571.718 567.373 571.718 572.579 577.23 575.757C582.741 578.94 591.758 578.94 597.264 575.757C602.775 572.573 602.775 567.373 597.264 564.19Z" fill="#3951A9"/>
<path opacity="0.94" d="M596.641 564.551C591.474 561.567 583.019 561.567 577.852 564.551C572.685 567.534 572.685 572.418 577.852 575.401C583.019 578.385 591.474 578.385 596.641 575.401C601.808 572.418 601.808 567.54 596.641 564.551Z" fill="#354DA7"/>
<path opacity="0.96" d="M596.019 564.912C591.197 562.128 583.302 562.128 578.474 564.912C573.652 567.695 573.652 572.257 578.474 575.04C583.296 577.823 591.191 577.823 596.019 575.04C600.842 572.257 600.842 567.695 596.019 564.912Z" fill="#3049A6"/>
<path opacity="0.98" d="M595.397 565.273C590.913 562.684 583.58 562.684 579.102 565.273C574.624 567.862 574.618 572.096 579.102 574.679C583.585 577.268 590.919 577.268 595.397 574.679C599.88 572.09 599.88 567.856 595.397 565.273Z" fill="#2C46A4"/>
<path d="M594.769 565.629C590.63 563.24 583.858 563.24 579.719 565.629C575.579 568.018 575.579 571.929 579.719 574.318C583.858 576.707 590.63 576.707 594.769 574.318C598.908 571.929 598.908 568.018 594.769 565.629Z" fill="#2842A2"/>
<path d="M625.854 559.539H622.259C620.626 557.617 618.459 555.811 615.698 554.217C602.158 546.4 580.002 546.4 566.462 554.217C563.701 555.811 561.535 557.617 559.901 559.539H556.395V567.067H556.418C555.768 572.662 559.096 578.39 566.462 582.64C580.002 590.457 602.158 590.457 615.698 582.64C623.065 578.385 626.387 572.662 625.743 567.067H625.854V559.539Z" fill="#FFC107"/>
<path d="M573.513 551.111C572.335 551.511 571.185 551.95 570.079 552.434V584.435C571.185 584.918 572.335 585.357 573.513 585.757V551.111Z" fill="#FFAD33"/>
<path d="M563.212 556.423V580.429C564.201 581.196 565.262 581.946 566.468 582.64C566.524 582.674 566.59 582.701 566.646 582.735V554.128C566.59 554.161 566.524 554.189 566.468 554.222C565.262 554.917 564.196 555.656 563.212 556.428V556.423Z" fill="#FFAD33"/>
<path d="M580.38 549.339C579.218 549.556 578.074 549.811 576.946 550.095V586.768C578.074 587.057 579.218 587.307 580.38 587.524V549.339Z" fill="#FFAD33"/>
<path d="M618.148 555.817V581.068C619.476 580.118 620.598 579.101 621.581 578.057V558.812C620.603 557.767 619.464 556.767 618.148 555.817Z" fill="#FFAD33"/>
<path d="M625.015 572.679C625.692 570.834 625.965 568.945 625.742 567.073H625.854V559.545H625.009V572.684L625.015 572.679Z" fill="#FFAD33"/>
<path d="M607.847 550.833C606.725 550.478 605.586 550.156 604.414 549.878V586.985C605.586 586.707 606.725 586.385 607.847 586.029V550.833Z" fill="#FFAD33"/>
<path d="M559.779 577.184V559.545H556.401V567.073H556.423C556.023 570.523 557.145 574.012 559.779 577.184Z" fill="#FFAD33"/>
<path d="M614.714 553.706C613.62 553.117 612.47 552.578 611.281 552.089V584.774C612.47 584.285 613.62 583.746 614.714 583.157V553.706Z" fill="#FFAD33"/>
<path d="M587.246 548.489C586.096 548.561 584.952 548.672 583.813 548.811V588.057C584.952 588.196 586.096 588.302 587.246 588.374V548.489Z" fill="#FFAD33"/>
<path d="M594.114 588.424V548.439C592.969 548.383 591.825 548.361 590.68 548.367V588.496C591.825 588.502 592.969 588.479 594.114 588.424Z" fill="#FFAD33"/>
<path d="M600.98 549.178C599.847 548.989 598.702 548.833 597.547 548.706V588.157C598.702 588.035 599.847 587.879 600.98 587.685V549.178Z" fill="#FFAD33"/>
<path d="M615.703 544.25C602.164 536.433 580.007 536.433 566.468 544.25C552.929 552.067 552.929 564.856 566.468 572.673C580.007 580.49 602.164 580.49 615.703 572.673C629.243 564.856 629.243 552.067 615.703 544.25Z" fill="#FFCD39"/>
<path d="M613.248 545.033C601.058 537.994 581.113 537.994 568.924 545.033C556.734 552.072 556.734 563.59 568.924 570.623C581.113 577.662 601.058 577.662 613.248 570.623C625.437 563.584 625.437 552.067 613.248 545.033Z" fill="#FFAD33"/>
<path d="M610.531 546.517C599.836 540.45 582.335 540.45 571.64 546.517C560.946 552.578 560.946 562.501 571.64 568.568C582.335 574.629 599.836 574.629 610.531 568.568C621.226 562.506 621.226 552.584 610.531 546.517Z" fill="#FFCD39"/>
<path d="M593.68 565.284H584.008C581.785 565.284 579.974 564.228 579.974 562.94V561.739H585.719V561.951H593.68C595.214 561.951 596.458 561.228 596.458 560.334C596.458 559.756 595.647 559.284 594.652 559.284H587.524C583.363 559.284 579.974 557.312 579.974 554.895V554.295C579.974 551.561 583.796 549.339 588.491 549.339H598.164C600.386 549.339 602.197 550.395 602.197 551.684V553.05H596.453V552.678H588.491C586.958 552.678 585.713 553.406 585.713 554.295V554.895C585.713 555.473 586.524 555.945 587.519 555.945H594.647C598.808 555.945 602.197 557.917 602.197 560.334C602.197 563.067 598.375 565.29 593.68 565.29V565.284Z" fill="#FF9800"/>
<path d="M593.958 547.711H588.213V567.379H593.958V547.711Z" fill="#FF9800"/>
<path d="M625.854 544.967H622.259C620.626 543.044 618.459 541.239 615.698 539.644C602.158 531.827 580.002 531.827 566.462 539.644C563.701 541.239 561.535 543.044 559.901 544.967H556.395V552.495H556.418C555.768 558.089 559.096 563.817 566.462 568.068C580.002 575.885 602.158 575.885 615.698 568.068C623.065 563.812 626.387 558.089 625.743 552.495H625.854V544.967Z" fill="#FFC107"/>
<path d="M573.513 536.539C572.335 536.939 571.185 537.377 570.079 537.861V569.862C571.185 570.345 572.335 570.784 573.513 571.184V536.539Z" fill="#FFAD33"/>
<path d="M563.212 541.85V565.856C564.201 566.623 565.262 567.373 566.468 568.068C566.524 568.101 566.59 568.129 566.646 568.162V539.55C566.59 539.583 566.524 539.611 566.468 539.644C565.262 540.339 564.196 541.078 563.212 541.85Z" fill="#FFAD33"/>
<path d="M580.38 534.761C579.218 534.977 578.074 535.233 576.946 535.516V572.196C578.074 572.484 579.218 572.734 580.38 572.951V534.761Z" fill="#FFAD33"/>
<path d="M618.148 541.244V566.495C619.476 565.545 620.598 564.529 621.581 563.484V544.239C620.603 543.194 619.464 542.194 618.148 541.244Z" fill="#FFAD33"/>
<path d="M625.015 558.106C625.692 556.262 625.965 554.373 625.742 552.5H625.854V544.972H625.009V558.112L625.015 558.106Z" fill="#FFAD33"/>
<path d="M607.847 536.261C606.725 535.905 605.586 535.583 604.414 535.305V572.412C605.586 572.134 606.725 571.812 607.847 571.457V536.261Z" fill="#FFAD33"/>
<path d="M559.779 562.612V544.972H556.401V552.5H556.423C556.023 555.95 557.145 559.44 559.779 562.612Z" fill="#FFAD33"/>
<path d="M614.714 539.128C613.62 538.539 612.47 538 611.281 537.511V570.195C612.47 569.707 613.62 569.168 614.714 568.579V539.128Z" fill="#FFAD33"/>
<path d="M587.246 533.916C586.096 533.988 584.952 534.1 583.813 534.238V573.479C584.952 573.618 586.096 573.723 587.246 573.801V533.916Z" fill="#FFAD33"/>
<path d="M594.114 573.851V533.866C592.969 533.811 591.825 533.788 590.68 533.794V573.923C591.825 573.929 592.969 573.907 594.114 573.851Z" fill="#FFAD33"/>
<path d="M600.98 534.6C599.847 534.411 598.702 534.255 597.547 534.127V573.584C598.702 573.462 599.847 573.307 600.98 573.112V534.6Z" fill="#FFAD33"/>
<path d="M615.703 529.677C602.164 521.86 580.007 521.86 566.468 529.677C552.929 537.494 552.929 550.284 566.468 558.101C580.007 565.918 602.164 565.918 615.703 558.101C629.243 550.284 629.243 537.494 615.703 529.677Z" fill="#FFCD39"/>
<path d="M613.248 530.461C601.058 523.421 581.113 523.421 568.924 530.461C556.734 537.5 556.734 549.017 568.924 556.051C581.113 563.09 601.058 563.09 613.248 556.051C625.437 549.011 625.437 537.494 613.248 530.461Z" fill="#FFAD33"/>
<path d="M610.531 531.944C599.836 525.883 582.335 525.883 571.64 531.944C560.946 538.005 560.946 547.928 571.64 553.995C582.335 560.056 599.836 560.056 610.531 553.995C621.226 547.933 621.226 538.011 610.531 531.944Z" fill="#FFCD39"/>
<path d="M593.68 550.711H584.008C581.785 550.711 579.974 549.656 579.974 548.367V547.167H585.719V547.378H593.68C595.214 547.378 596.458 546.656 596.458 545.761C596.458 545.183 595.647 544.711 594.652 544.711H587.524C583.363 544.711 579.974 542.739 579.974 540.322V539.722C579.974 536.989 583.796 534.766 588.491 534.766H598.164C600.386 534.766 602.197 535.822 602.197 537.111V538.478H596.453V538.105H588.491C586.958 538.105 585.713 538.833 585.713 539.722V540.322C585.713 540.9 586.524 541.372 587.519 541.372H594.647C598.808 541.372 602.197 543.339 602.197 545.761C602.197 548.495 598.375 550.717 593.68 550.717V550.711Z" fill="#FF9800"/>
<path d="M593.958 533.138H588.213V552.806H593.958V533.138Z" fill="#FF9800"/>
</g>
<g clip-path="url(#clip4_168_4773)">
<path opacity="0.02" d="M102.712 432.972C79.5575 419.605 41.6596 419.605 18.4966 432.972C-4.66636 446.339 -4.66636 468.225 18.4966 481.592C41.6596 494.959 79.5493 494.959 102.712 481.592C125.875 468.225 125.875 446.339 102.712 432.972Z" fill="#FBFBFD"/>
<path opacity="0.04" d="M102.032 433.357C79.2462 420.203 41.9626 420.203 19.1763 433.357C-3.60989 446.511 -3.60989 468.036 19.1763 481.199C41.9626 494.353 79.2462 494.353 102.032 481.199C124.819 468.044 124.819 446.52 102.032 433.357Z" fill="#F7F8FB"/>
<path opacity="0.06" d="M101.353 433.75C78.9433 420.809 42.2658 420.809 19.8481 433.75C-2.56135 446.691 -2.56135 467.864 19.8481 480.805C42.2576 493.746 78.9351 493.746 101.353 480.805C123.762 467.864 123.762 446.691 101.353 433.75Z" fill="#F2F4FA"/>
<path opacity="0.08" d="M100.673 434.144C78.6319 421.415 42.5687 421.415 20.5279 434.144C-1.51303 446.872 -1.51303 467.692 20.5279 480.412C42.5687 493.14 78.6319 493.14 100.673 480.412C122.714 467.684 122.714 446.864 100.673 434.144Z" fill="#EEF0F8"/>
<path opacity="0.1" d="M99.9931 434.537C78.329 422.03 42.8719 422.03 21.2078 434.537C-0.456314 447.044 -0.456314 467.512 21.2078 480.027C42.8719 492.534 78.329 492.534 99.9931 480.027C121.657 467.52 121.657 447.044 99.9931 434.537Z" fill="#EAECF6"/>
<path opacity="0.12" d="M99.3214 434.93C78.0259 422.636 43.1831 422.636 21.8876 434.93C0.592007 447.224 0.592007 467.34 21.8876 479.634C43.1831 491.928 78.0259 491.928 99.3214 479.634C120.617 467.34 120.617 447.224 99.3214 434.93Z" fill="#E6E9F4"/>
<path opacity="0.14" d="M98.6413 435.323C77.7225 423.242 43.4858 423.242 22.567 435.323C1.64823 447.404 1.64823 467.168 22.567 479.249C43.4858 491.33 77.7225 491.33 98.6413 479.249C119.56 467.168 119.56 447.404 98.6413 435.323Z" fill="#E1E5F2"/>
<path opacity="0.16" d="M97.9619 435.708C77.4117 423.848 43.7893 423.848 23.2391 435.708C2.68887 447.568 2.68887 466.988 23.2391 478.848C43.7893 490.708 77.4117 490.708 97.9619 478.848C118.512 466.988 118.512 447.576 97.9619 435.708Z" fill="#DDE1F0"/>
<path opacity="0.18" d="M97.2817 436.101C77.1082 424.454 44.092 424.454 23.9185 436.101C3.74509 447.748 3.74509 466.808 23.9185 478.455C44.092 490.102 77.1082 490.102 97.2817 478.455C117.455 466.808 117.455 447.748 97.2817 436.101Z" fill="#D9DEEF"/>
<path opacity="0.2" d="M96.602 436.494C76.7972 425.06 44.3952 425.06 24.5985 436.494C4.79366 447.928 4.79366 466.636 24.5985 478.07C44.4034 489.504 76.8054 489.504 96.602 478.07C116.407 466.636 116.407 447.928 96.602 436.494Z" fill="#D5DAED"/>
<path opacity="0.22" d="M95.9221 436.887C76.494 425.675 44.6981 425.675 25.27 436.887C5.84195 448.1 5.84195 466.456 25.27 477.677C44.6981 488.898 76.494 488.898 95.9221 477.677C115.35 466.456 115.35 448.109 95.9221 436.887Z" fill="#D1D6EB"/>
<path opacity="0.24" d="M95.2504 437.28C76.1909 426.281 45.0175 426.281 25.958 437.28C6.89845 448.28 6.89845 466.283 25.958 477.283C45.0093 488.283 76.1909 488.283 95.2504 477.283C114.302 466.283 114.302 448.28 95.2504 437.28Z" fill="#CCD3E9"/>
<path opacity="0.25" d="M94.5708 437.666C75.8881 426.879 45.3208 426.879 26.638 437.666C7.95529 448.453 7.95529 466.103 26.638 476.89C45.3208 487.677 75.8881 487.677 94.5708 476.89C113.254 466.103 113.254 448.453 94.5708 437.666Z" fill="#C8CFE7"/>
<path opacity="0.27" d="M93.891 438.059C75.585 427.485 45.6239 427.485 27.3097 438.059C9.00371 448.633 9.00371 465.931 27.3097 476.497C45.6157 487.071 75.5769 487.071 93.891 476.497C112.197 465.923 112.197 448.625 93.891 438.059Z" fill="#C4CBE5"/>
<path opacity="0.29" d="M93.2111 438.452C75.2737 428.099 45.9268 428.099 27.9894 438.452C10.052 448.805 10.052 465.751 27.9894 476.104C45.9268 486.457 75.2737 486.457 93.2111 476.104C111.149 465.751 111.149 448.805 93.2111 438.452Z" fill="#C0C7E4"/>
<path opacity="0.31" d="M92.5313 438.845C74.9707 428.705 46.2299 428.705 28.6693 438.845C11.1086 448.985 11.1086 465.579 28.6693 475.719C46.2299 485.859 74.9707 485.859 92.5313 475.719C110.092 465.579 110.092 448.985 92.5313 438.845Z" fill="#BCC4E2"/>
<path opacity="0.33" d="M91.8516 439.238C74.6595 429.311 46.533 429.311 29.3409 439.238C12.1489 449.165 12.1489 465.399 29.3409 475.326C46.533 485.253 74.6595 485.253 91.8516 475.326C109.044 465.399 109.044 449.157 91.8516 439.238Z" fill="#B7C0E0"/>
<path opacity="0.35" d="M91.1799 439.623C74.3646 429.917 46.8442 429.917 30.0289 439.623C13.2137 449.329 13.2137 465.219 30.0289 474.933C46.8442 484.639 74.3646 484.639 91.1799 474.933C107.995 465.227 107.995 449.337 91.1799 439.623Z" fill="#B3BCDE"/>
<path opacity="0.37" d="M90.5002 440.016C74.0535 430.523 47.1473 430.523 30.7006 440.016C14.2539 449.509 14.2539 465.047 30.7006 474.54C47.1473 484.032 74.0535 484.032 90.5002 474.54C106.947 465.047 106.947 449.509 90.5002 440.016Z" fill="#AFB9DC"/>
<path opacity="0.39" d="M89.8204 440.409C73.7504 431.129 47.4504 431.129 31.3805 440.409C15.3105 449.689 15.3105 464.875 31.3805 474.146C47.4504 483.426 73.7504 483.426 89.8204 474.146C105.89 464.867 105.89 449.681 89.8204 440.409Z" fill="#ABB5DB"/>
<path opacity="0.41" d="M89.1405 440.803C73.4391 431.736 47.7534 431.736 32.0602 440.803C16.3588 449.87 16.3588 464.695 32.0602 473.762C47.7616 482.828 73.4473 482.828 89.1405 473.762C104.842 464.695 104.842 449.87 89.1405 440.803Z" fill="#A6B1D9"/>
<path opacity="0.43" d="M88.4607 441.196C73.1361 432.35 48.0565 432.35 32.7319 441.196C17.4073 450.042 17.4073 464.522 32.7319 473.368C48.0565 482.214 73.1361 482.214 88.4607 473.368C103.785 464.522 103.785 450.042 88.4607 441.196Z" fill="#A2ADD7"/>
<path opacity="0.45" d="M60.6044 479.478C81.8379 479.478 99.051 469.541 99.051 457.282C99.051 445.023 81.8379 435.085 60.6044 435.085C39.3709 435.085 22.1577 445.023 22.1577 457.282C22.1577 469.541 39.3709 479.478 60.6044 479.478Z" fill="#9EAAD5"/>
<path opacity="0.47" d="M87.1091 441.974C72.5299 433.554 48.6789 433.554 34.0996 441.974C19.5203 450.394 19.5203 464.162 34.0996 472.582C48.6789 481.002 72.5299 481.002 87.1091 472.582C101.688 464.162 101.688 450.394 87.1091 441.974Z" fill="#9AA6D3"/>
<path opacity="0.49" d="M86.4292 442.367C72.2267 434.168 48.9818 434.168 34.7711 442.367C20.5686 450.566 20.5686 463.99 34.7711 472.189C48.9736 480.388 72.2185 480.388 86.4292 472.189C100.632 463.99 100.632 450.566 86.4292 442.367Z" fill="#96A2D1"/>
<path opacity="0.51" d="M60.6042 477.816C80.2454 477.816 96.1678 468.622 96.1678 457.282C96.1678 445.941 80.2454 436.748 60.6042 436.748C40.963 436.748 25.0406 445.941 25.0406 457.282C25.0406 468.622 40.963 477.816 60.6042 477.816Z" fill="#919FD0"/>
<path opacity="0.53" d="M85.0696 443.153C71.6125 435.38 49.588 435.38 36.1308 443.153C22.6737 450.926 22.6737 463.638 36.1308 471.411C49.588 479.184 71.6125 479.184 85.0696 471.411C98.5268 463.638 98.5268 450.926 85.0696 443.153Z" fill="#8D9BCE"/>
<path opacity="0.55" d="M84.3979 443.546C71.3093 435.995 49.8991 435.995 36.8106 443.546C23.722 451.098 23.722 463.466 36.8106 471.018C49.8991 478.569 71.3093 478.569 84.3979 471.018C97.4865 463.466 97.4865 451.098 84.3979 443.546Z" fill="#8997CC"/>
<path opacity="0.57" d="M83.7184 443.931C71.0066 436.593 50.2024 436.593 37.4906 443.931C24.7788 451.27 24.7788 463.278 37.4906 470.624C50.2024 477.963 71.0066 477.963 83.7184 470.624C96.4302 463.286 96.4302 451.278 83.7184 443.931Z" fill="#8594CA"/>
<path opacity="0.59" d="M83.0385 444.324C70.6952 437.199 50.5054 437.199 38.1704 444.324C25.8272 451.45 25.8272 463.105 38.1704 470.231C50.5136 477.357 70.7034 477.357 83.0385 470.231C95.3817 463.105 95.3817 451.45 83.0385 444.324Z" fill="#8190C8"/>
<path opacity="0.61" d="M82.3587 444.718C70.3922 437.805 50.8085 437.805 38.842 444.718C26.8756 451.63 26.8756 462.933 38.842 469.838C50.8085 476.751 70.3922 476.751 82.3587 469.838C94.3251 462.925 94.3251 451.622 82.3587 444.718Z" fill="#7C8CC6"/>
<path opacity="0.63" d="M81.6788 445.111C70.0892 438.419 51.1115 438.419 39.5219 445.111C27.9322 451.803 27.9322 462.762 39.5219 469.453C51.1115 476.145 70.0892 476.145 81.6788 469.453C93.2767 462.762 93.2767 451.803 81.6788 445.111Z" fill="#7888C5"/>
<path opacity="0.65" d="M80.9991 445.504C69.778 439.025 51.4147 439.025 40.1935 445.504C28.9724 451.983 28.9724 462.581 40.1935 469.06C51.4147 475.539 69.778 475.539 80.9991 469.06C92.2202 462.581 92.2202 451.983 80.9991 445.504Z" fill="#7485C3"/>
<path opacity="0.67" d="M80.3275 445.897C69.4831 439.631 51.7259 439.631 40.8816 445.897C30.0372 452.163 30.0372 462.409 40.8816 468.675C51.7259 474.941 69.4831 474.941 80.3275 468.675C91.1718 462.409 91.1718 452.163 80.3275 445.897Z" fill="#7081C1"/>
<path opacity="0.69" d="M79.6476 446.282C69.1718 440.237 52.0289 440.237 41.5613 446.282C31.0855 452.327 31.0855 462.229 41.5613 468.274C52.0371 474.318 69.18 474.318 79.6476 468.274C90.1233 462.229 90.1233 452.327 79.6476 446.282Z" fill="#6B7DBF"/>
<path opacity="0.71" d="M78.9678 446.675C68.8688 440.843 52.3401 440.843 42.2329 446.675C32.1339 452.507 32.1339 462.049 42.2329 467.881C52.3319 473.712 68.8606 473.712 78.9678 467.881C89.0668 462.049 89.0668 452.507 78.9678 446.675Z" fill="#677ABD"/>
<path opacity="0.73" d="M78.288 447.068C68.5576 441.45 52.6432 441.45 42.9128 447.068C33.1824 452.687 33.1824 461.877 42.9128 467.496C52.6432 473.114 68.5576 473.114 78.288 467.496C88.0184 461.877 88.0184 452.687 78.288 447.068Z" fill="#6376BC"/>
<path opacity="0.75" d="M77.6081 447.461C68.2544 442.056 52.9462 442.056 43.5925 447.461C34.2389 452.859 34.2389 461.705 43.5925 467.102C52.9462 472.5 68.2544 472.5 77.6081 467.102C86.9617 461.705 86.9617 452.859 77.6081 447.461Z" fill="#5F72BA"/>
<path opacity="0.76" d="M76.9364 447.855C67.9513 442.67 53.2573 442.67 44.2723 447.855C35.2872 453.039 35.2872 461.525 44.2723 466.709C53.2573 471.894 67.9513 471.894 76.9364 466.709C85.9214 461.525 85.9214 453.039 76.9364 447.855Z" fill="#5B6EB8"/>
<path opacity="0.78" d="M76.2564 448.24C67.6481 443.268 53.5603 443.268 44.952 448.24C36.3436 453.211 36.3436 461.344 44.952 466.316C53.5603 471.288 67.6481 471.288 76.2564 466.316C84.8647 461.344 84.8647 453.211 76.2564 448.24Z" fill="#566BB6"/>
<path opacity="0.8" d="M75.5767 448.633C67.337 443.882 53.8635 443.882 45.6237 448.633C37.3922 453.391 37.3922 461.173 45.6237 465.923C53.8635 470.682 67.337 470.682 75.5767 465.923C83.8165 461.164 83.8165 453.383 75.5767 448.633Z" fill="#5267B4"/>
<path opacity="0.82" d="M74.8968 449.026C67.0339 444.488 54.1664 444.488 46.3035 449.026C38.4405 453.563 38.4405 460.992 46.3035 465.53C54.1664 470.068 67.0339 470.068 74.8968 465.53C82.7598 460.992 82.7598 453.563 74.8968 449.026Z" fill="#4E63B2"/>
<path opacity="0.84" d="M60.6046 468.405C71.2394 468.405 79.8607 463.425 79.8607 457.282C79.8607 451.139 71.2394 446.159 60.6046 446.159C49.9698 446.159 41.3485 451.139 41.3485 457.282C41.3485 463.425 49.9698 468.405 60.6046 468.405Z" fill="#4A60B1"/>
<path opacity="0.86" d="M73.5372 449.812C66.4195 445.7 54.7725 445.7 47.6549 449.812C40.5372 453.924 40.5372 460.648 47.6549 464.752C54.7725 468.855 66.4195 468.863 73.5372 464.752C80.6548 460.64 80.6548 453.916 73.5372 449.812Z" fill="#465CAF"/>
<path opacity="0.88" d="M72.8659 450.197C66.125 446.307 55.0841 446.307 48.3432 450.197C41.6024 454.088 41.6024 460.46 48.3432 464.359C55.0841 468.249 66.125 468.249 72.8659 464.359C79.6067 460.468 79.6067 454.096 72.8659 450.197Z" fill="#4158AD"/>
<path opacity="0.9" d="M72.186 450.59C65.8137 446.913 55.3871 446.913 49.023 450.59C42.6589 454.268 42.6507 460.288 49.023 463.966C55.3952 467.643 65.8219 467.643 72.186 463.966C78.5582 460.288 78.5582 454.268 72.186 450.59Z" fill="#3D55AB"/>
<path opacity="0.92" d="M71.5062 450.983C65.5107 447.519 55.6901 447.519 49.6946 450.983C43.6991 454.448 43.6991 460.116 49.6946 463.572C55.6901 467.037 65.5107 467.037 71.5062 463.572C77.5017 460.108 77.5017 454.44 71.5062 450.983Z" fill="#3951A9"/>
<path opacity="0.94" d="M70.8263 451.377C65.1994 448.133 56.0013 448.133 50.3744 451.377C44.7474 454.628 44.7474 459.936 50.3744 463.187C56.0013 466.431 65.1994 466.431 70.8263 463.187C76.4532 459.944 76.4532 454.628 70.8263 451.377Z" fill="#354DA7"/>
<path opacity="0.96" d="M70.1465 451.77C64.8963 448.739 56.3044 448.739 51.0542 451.77C45.804 454.8 45.804 459.764 51.0542 462.794C56.3044 465.825 64.8963 465.825 70.1465 462.794C75.3967 459.764 75.3967 454.8 70.1465 451.77Z" fill="#3049A6"/>
<path opacity="0.98" d="M69.475 452.163C64.5934 449.345 56.6158 449.345 51.7342 452.163C46.8526 454.98 46.8526 459.592 51.7342 462.401C56.6158 465.219 64.5934 465.219 69.475 462.401C74.3566 459.584 74.3566 454.972 69.475 452.163Z" fill="#2C46A4"/>
<path d="M68.7951 452.548C64.2903 449.943 56.9187 449.943 52.4139 452.548C47.9091 455.152 47.9091 459.403 52.4139 462.008C56.9187 464.613 64.2903 464.613 68.7951 462.008C73.2999 459.403 73.2999 455.152 68.7951 452.548Z" fill="#2842A2"/>
<path d="M102.63 445.922H98.7234C96.9461 443.825 94.5872 441.859 91.5812 440.131C76.8382 431.621 52.7251 431.621 37.9902 440.131C34.9842 441.867 32.6253 443.833 30.848 445.922H27.0312V454.12H27.0557C26.3513 460.214 29.9716 466.447 37.9902 471.075C52.7251 479.585 76.8464 479.585 91.5812 471.075C99.5998 466.447 103.22 460.214 102.516 454.12H102.639V445.922H102.63Z" fill="#FFC107"/>
<path d="M45.6486 436.74C44.3627 437.174 43.1177 437.649 41.9137 438.182V473.016C43.1177 473.54 44.3627 474.024 45.6486 474.458V436.74Z" fill="#FFAD33"/>
<path d="M34.4357 442.523V468.659C35.5168 469.494 36.6635 470.313 37.9822 471.067C38.0477 471.1 38.1132 471.132 38.1788 471.165V440.024C38.1132 440.057 38.0477 440.09 37.9822 440.123C36.6717 440.876 35.5086 441.687 34.4357 442.523Z" fill="#FFAD33"/>
<path d="M53.1266 434.815C51.8571 435.053 50.6121 435.323 49.3917 435.642V475.563C50.6203 475.875 51.8653 476.153 53.1266 476.391V434.815Z" fill="#FFAD33"/>
<path d="M94.2434 441.867V469.355C95.6931 468.323 96.9135 467.217 97.9783 466.079V445.127C96.9135 443.989 95.6768 442.899 94.2434 441.867Z" fill="#FFAD33"/>
<path d="M101.713 460.222C102.45 458.216 102.745 456.16 102.508 454.12H102.63V445.922H101.713V460.222Z" fill="#FFAD33"/>
<path d="M83.0304 436.445C81.81 436.06 80.5651 435.708 79.2955 435.405V475.801C80.5733 475.498 81.81 475.146 83.0304 474.761V436.445Z" fill="#FFAD33"/>
<path d="M30.7007 465.128V445.922H27.0232V454.12H27.0477C26.6136 457.872 27.834 461.68 30.7007 465.128Z" fill="#FFAD33"/>
<path d="M90.5002 439.566C89.3043 438.927 88.0594 438.337 86.7653 437.805V473.385C88.0594 472.852 89.3043 472.263 90.5002 471.624V439.566Z" fill="#FFAD33"/>
<path d="M60.6047 433.89C59.3515 433.972 58.1065 434.086 56.8698 434.242V476.964C58.1065 477.111 59.3515 477.234 60.6047 477.308V433.89Z" fill="#FFAD33"/>
<path d="M68.0743 477.365V433.832C66.8293 433.767 65.5843 433.742 64.3394 433.75V477.431C65.5843 477.439 66.8375 477.414 68.0743 477.349V477.365Z" fill="#FFAD33"/>
<path d="M75.5525 434.635C74.3239 434.43 73.0708 434.258 71.8176 434.127V477.07C73.0708 476.931 74.3239 476.767 75.5525 476.563V434.635Z" fill="#FFAD33"/>
<path d="M91.5814 429.278C76.8383 420.768 52.7252 420.768 37.9903 429.278C23.2472 437.788 23.2472 451.712 37.9903 460.222C52.7252 468.732 76.8465 468.732 91.5814 460.222C106.316 451.712 106.316 437.788 91.5814 429.278Z" fill="#FFCD39"/>
<path d="M88.9032 430.13C75.6344 422.472 53.9211 422.472 40.6524 430.13C27.3836 437.788 27.3836 450.328 40.6524 457.986C53.9211 465.645 75.6344 465.645 88.9032 457.986C102.172 450.328 102.172 437.788 88.9032 430.13Z" fill="#FFAD33"/>
<path d="M85.9462 431.744C74.3074 425.142 55.256 425.142 43.609 431.744C31.9702 438.345 31.9702 449.149 43.609 455.742C55.2478 462.344 74.2992 462.344 85.9462 455.742C97.585 449.141 97.585 438.337 85.9462 431.744Z" fill="#FFCD39"/>
<path d="M67.5993 452.179H57.0744C54.6581 452.179 52.6842 451.032 52.6842 449.624V448.313H58.9336V448.543H67.5993C69.2702 448.543 70.6216 447.756 70.6216 446.782C70.6216 446.151 69.737 445.635 68.6559 445.635H60.8994C56.37 445.635 52.6842 443.489 52.6842 440.852V440.196C52.6842 437.223 56.845 434.799 61.956 434.799H72.4809C74.9053 434.799 76.871 435.945 76.871 437.354V438.837H70.6216V438.435H61.956C60.2933 438.435 58.9336 439.222 58.9336 440.196V440.852C58.9336 441.482 59.8182 441.998 60.8994 441.998H68.6559C73.1853 441.998 76.871 444.144 76.871 446.782C76.871 449.755 72.7102 452.171 67.5993 452.171V452.179Z" fill="#FF9800"/>
<path d="M67.9021 433.046H61.6527V454.456H67.9021V433.046Z" fill="#FF9800"/>
<path d="M102.63 430.056H98.7234C96.9461 427.96 94.5872 425.994 91.5812 424.266C76.8382 415.756 52.7251 415.756 37.9902 424.266C34.9842 426.002 32.6253 427.968 30.848 430.056H27.0312V438.255H27.0557C26.3513 444.349 29.9716 450.582 37.9902 455.21C52.7251 463.72 76.8464 463.72 91.5812 455.21C99.5998 450.582 103.22 444.349 102.516 438.255H102.639V430.056H102.63Z" fill="#FFC107"/>
<path d="M45.6486 420.883C44.3627 421.317 43.1177 421.792 41.9137 422.316V457.151C43.1177 457.675 44.3627 458.158 45.6486 458.592V420.883Z" fill="#FFAD33"/>
<path d="M34.4357 426.657V452.794C35.5168 453.629 36.6635 454.448 37.9822 455.202C38.0477 455.234 38.1132 455.267 38.1788 455.3V424.159C38.1132 424.192 38.0477 424.225 37.9822 424.258C36.6717 425.011 35.5086 425.822 34.4357 426.657Z" fill="#FFAD33"/>
<path d="M53.1266 418.95C51.8571 419.188 50.6121 419.458 49.3917 419.777V459.698C50.6203 460.01 51.8653 460.288 53.1266 460.526V418.95Z" fill="#FFAD33"/>
<path d="M94.2434 426.002V453.49C95.6931 452.458 96.9135 451.352 97.9783 450.213V429.262C96.9135 428.123 95.6768 427.034 94.2434 426.002Z" fill="#FFAD33"/>
<path d="M101.713 444.357C102.45 442.35 102.745 440.295 102.508 438.255H102.63V430.056H101.713V444.357Z" fill="#FFAD33"/>
<path d="M83.0304 420.58C81.81 420.195 80.5651 419.843 79.2955 419.54V459.936C80.5733 459.633 81.81 459.28 83.0304 458.895V420.58Z" fill="#FFAD33"/>
<path d="M30.7007 449.263V430.056H27.0232V438.255H27.0477C26.6136 442.006 27.834 445.815 30.7007 449.263Z" fill="#FFAD33"/>
<path d="M90.5002 423.701C89.3043 423.062 88.0594 422.472 86.7653 421.94V457.52C88.0594 456.987 89.3043 456.397 90.5002 455.759V423.701Z" fill="#FFAD33"/>
<path d="M60.6047 418.024C59.3515 418.106 58.1065 418.221 56.8698 418.377V461.099C58.1065 461.246 59.3515 461.369 60.6047 461.451V418.024Z" fill="#FFAD33"/>
<path d="M68.0743 461.5V417.975C66.8293 417.91 65.5843 417.885 64.3394 417.893V461.574C65.5843 461.582 66.8375 461.557 68.0743 461.492V461.5Z" fill="#FFAD33"/>
<path d="M75.5525 418.77C74.3239 418.565 73.0708 418.393 71.8176 418.262V461.205C73.0708 461.066 74.3239 460.902 75.5525 460.697V418.77Z" fill="#FFAD33"/>
<path d="M91.5814 413.413C76.8383 404.903 52.7252 404.903 37.9903 413.413C23.2472 421.923 23.2472 435.847 37.9903 444.357C52.7252 452.867 76.8465 452.867 91.5814 444.357C106.316 435.847 106.316 421.923 91.5814 413.413Z" fill="#FFCD39"/>
<path d="M88.9032 414.265C75.6344 406.607 53.9211 406.607 40.6524 414.265C27.3836 421.923 27.3836 434.463 40.6524 442.121C53.9211 449.779 75.6344 449.779 88.9032 442.121C102.172 434.463 102.172 421.923 88.9032 414.265Z" fill="#FFAD33"/>
<path d="M85.9462 415.879C74.3074 409.277 55.256 409.277 43.609 415.879C31.9702 422.48 31.9702 433.284 43.609 439.877C55.2478 446.479 74.2992 446.479 85.9462 439.877C97.585 433.275 97.585 422.472 85.9462 415.879Z" fill="#FFCD39"/>
<path d="M67.5993 436.314H57.0744C54.6581 436.314 52.6842 435.167 52.6842 433.759V432.448H58.9336V432.677H67.5993C69.2702 432.677 70.6216 431.891 70.6216 430.916C70.6216 430.286 69.737 429.77 68.6559 429.77H60.8994C56.37 429.77 52.6842 427.624 52.6842 424.986V424.331C52.6842 421.358 56.845 418.934 61.956 418.934H72.4809C74.9053 418.934 76.871 420.08 76.871 421.489V422.972H70.6216V422.57H61.956C60.2933 422.57 58.9336 423.357 58.9336 424.331V424.986C58.9336 425.617 59.8182 426.133 60.8994 426.133H68.6559C73.1853 426.133 76.871 428.279 76.871 430.916C76.871 433.89 72.7102 436.306 67.5993 436.306V436.314Z" fill="#FF9800"/>
<path d="M67.9021 417.181H61.6527V438.591H67.9021V417.181Z" fill="#FF9800"/>
<path d="M102.63 414.191H98.7234C96.9461 412.095 94.5872 410.129 91.5812 408.401C76.8382 399.891 52.7251 399.891 37.9902 408.401C34.9842 410.137 32.6253 412.103 30.848 414.191H27.0312V422.39H27.0557C26.3513 428.484 29.9716 434.717 37.9902 439.345C52.7251 447.855 76.8464 447.855 91.5812 439.345C99.5998 434.717 103.22 428.484 102.516 422.39H102.639V414.191H102.63Z" fill="#FFC107"/>
<path d="M45.6486 405.018C44.3627 405.452 43.1177 405.927 41.9137 406.451V441.286C43.1177 441.81 44.3627 442.293 45.6486 442.727V405.018Z" fill="#FFAD33"/>
<path d="M34.4357 410.8V436.936C35.5168 437.772 36.6635 438.591 37.9822 439.344C38.0477 439.377 38.1132 439.41 38.1788 439.443V408.294C38.1132 408.327 38.0477 408.359 37.9822 408.392C36.6717 409.146 35.5086 409.957 34.4357 410.792V410.8Z" fill="#FFAD33"/>
<path d="M53.1266 403.085C51.8571 403.322 50.6121 403.593 49.3917 403.912V443.833C50.6203 444.144 51.8653 444.423 53.1266 444.66V403.085Z" fill="#FFAD33"/>
<path d="M94.2434 410.137V437.625C95.6931 436.593 96.9135 435.487 97.9783 434.348V413.397C96.9135 412.258 95.6768 411.169 94.2434 410.137Z" fill="#FFAD33"/>
<path d="M101.713 428.492C102.45 426.485 102.745 424.429 102.508 422.39H102.63V414.191H101.713V428.492Z" fill="#FFAD33"/>
<path d="M83.0304 404.715C81.81 404.33 80.5651 403.978 79.2955 403.675V444.071C80.5733 443.768 81.81 443.415 83.0304 443.03V404.715Z" fill="#FFAD33"/>
<path d="M30.7007 433.398V414.191H27.0232V422.39H27.0477C26.6136 426.141 27.834 429.95 30.7007 433.398Z" fill="#FFAD33"/>
<path d="M90.5002 407.835C89.3043 407.197 88.0594 406.607 86.7653 406.074V441.663C88.0594 441.13 89.3043 440.54 90.5002 439.902V407.835Z" fill="#FFAD33"/>
<path d="M60.6047 402.159C59.3515 402.241 58.1065 402.356 56.8698 402.511V445.234C58.1065 445.381 59.3515 445.504 60.6047 445.578V402.159Z" fill="#FFAD33"/>
<path d="M68.0743 445.635V402.11C66.8293 402.045 65.5843 402.02 64.3394 402.028V445.709C65.5843 445.717 66.8375 445.692 68.0743 445.627V445.635Z" fill="#FFAD33"/>
<path d="M75.5525 402.913C74.3239 402.7 73.0708 402.536 71.8176 402.397V445.34C73.0708 445.201 74.3239 445.037 75.5525 444.832V402.913Z" fill="#FFAD33"/>
<path d="M91.5814 397.548C76.8383 389.038 52.7252 389.038 37.9903 397.548C23.2472 406.058 23.2472 419.982 37.9903 428.492C52.7252 437.002 76.8465 437.002 91.5814 428.492C106.316 419.982 106.316 406.058 91.5814 397.548Z" fill="#FFCD39"/>
<path d="M88.9032 398.4C75.6344 390.733 53.9211 390.733 40.6524 398.4C27.3836 406.058 27.3836 418.598 40.6524 426.256C53.9211 433.914 75.6344 433.914 88.9032 426.256C102.172 418.598 102.172 406.058 88.9032 398.4Z" fill="#FFAD33"/>
<path d="M85.9462 400.013C74.3074 393.412 55.256 393.412 43.609 400.013C31.9702 406.615 31.9702 417.418 43.609 424.012C55.2478 430.613 74.2992 430.613 85.9462 424.012C97.585 417.41 97.585 406.607 85.9462 400.013Z" fill="#FFCD39"/>
<path d="M67.5993 420.449H57.0744C54.6581 420.449 52.6842 419.302 52.6842 417.893V416.583H58.9336V416.812H67.5993C69.2702 416.812 70.6216 416.026 70.6216 415.051C70.6216 414.421 69.737 413.905 68.6559 413.905H60.8994C56.37 413.905 52.6842 411.759 52.6842 409.121V408.466C52.6842 405.493 56.845 403.068 61.956 403.068H72.4809C74.9053 403.068 76.871 404.215 76.871 405.624V407.106H70.6216V406.705H61.956C60.2933 406.705 58.9336 407.491 58.9336 408.466V409.121C58.9336 409.752 59.8182 410.268 60.8994 410.268H68.6559C73.1853 410.268 76.871 412.414 76.871 415.051C76.871 418.025 72.7102 420.441 67.5993 420.441V420.449Z" fill="#FF9800"/>
<path d="M67.9021 401.316H61.6527V422.726H67.9021V401.316Z" fill="#FF9800"/>
</g>
<defs>
<linearGradient id="paint0_linear_168_4773" x1="198.877" y1="324.146" x2="615.006" y2="324.146" gradientUnits="userSpaceOnUse">
<stop stop-color="#B6C7F1"/>
<stop offset="0.25" stop-color="#C3D1F3"/>
<stop offset="0.71" stop-color="#E6EBFA"/>
<stop offset="1" stop-color="white"/>
</linearGradient>
<linearGradient id="paint1_linear_168_4773" x1="306.64" y1="84.7" x2="343.435" y2="84.7" gradientUnits="userSpaceOnUse">
<stop stop-color="#02126A"/>
<stop offset="1" stop-color="#2647C8"/>
</linearGradient>
<linearGradient id="paint2_linear_168_4773" x1="305" y1="85.2697" x2="341.795" y2="85.2697" gradientUnits="userSpaceOnUse">
<stop stop-color="#2647C8"/>
<stop offset="1" stop-color="#02126A"/>
</linearGradient>
<linearGradient id="paint3_linear_168_4773" x1="391.413" y1="61.6408" x2="423.182" y2="61.6408" gradientUnits="userSpaceOnUse">
<stop stop-color="white"/>
<stop offset="0.23" stop-color="#D6DFF7"/>
<stop offset="0.59" stop-color="#9EB4ED"/>
<stop offset="0.85" stop-color="#7B99E6"/>
<stop offset="1" stop-color="#6E8FE4"/>
</linearGradient>
<linearGradient id="paint4_linear_168_4773" x1="420.761" y1="87.4542" x2="391.535" y2="37.4417" gradientUnits="userSpaceOnUse">
<stop stop-color="#2647C8"/>
<stop offset="1" stop-color="#B1C4E4"/>
</linearGradient>
<linearGradient id="paint5_linear_168_4773" x1="314.668" y1="559.786" x2="376.042" y2="559.786" gradientUnits="userSpaceOnUse">
<stop stop-color="#EFF4FE"/>
<stop offset="1" stop-color="#B1C4E4"/>
</linearGradient>
<clipPath id="clip0_168_4773">
<rect width="568.403" height="598.932" fill="white" transform="translate(127.973)"/>
</clipPath>
<clipPath id="clip1_168_4773">
<rect width="64.1034" height="99.3895" fill="white" transform="translate(311.938 510.26)"/>
</clipPath>
<clipPath id="clip2_168_4773">
<rect width="162.664" height="120.599" fill="white" transform="translate(640.17 448.293)"/>
</clipPath>
<clipPath id="clip3_168_4773">
<rect width="111.038" height="78.2141" fill="white" transform="translate(531.728 523.816)"/>
</clipPath>
<clipPath id="clip4_168_4773">
<rect width="120.869" height="101.006" fill="white" transform="translate(0.166016 391.167)"/>
</clipPath>
</defs>
</svg>
