<svg width="61" height="43" viewBox="0 0 61 43" fill="none" xmlns="http://www.w3.org/2000/svg">
<path d="M58.4496 42.0258H40.7128V39.0185L45.9988 34.5077V31.5004C45.9988 30.6693 46.7869 29.9968 47.7608 29.9968H58.4496C59.1 29.9968 59.6953 30.3023 60.0016 30.7912C60.3114 31.2802 60.277 31.8734 59.9157 32.3346L57.0421 36.0114L59.9157 39.6883C60.277 40.1494 60.3114 40.7426 60.0016 41.2316C59.6953 41.7204 59.1 42.0258 58.4496 42.0258Z" fill="#477EF6"/>
<path d="M19.5688 42.026H1.83199C1.18158 42.026 0.586256 41.7206 0.279903 41.2316C-0.0298574 40.7426 0.00456041 40.1494 0.365888 39.6883L3.23948 36.0114L0.365888 32.3346C0.00456041 31.8734 -0.0298574 31.2802 0.279903 30.7912C0.586139 30.3023 1.18158 29.9968 1.83199 29.9968H12.5208C13.4947 29.9968 14.2828 30.6693 14.2828 31.5004V34.5077L19.5688 39.0185V42.026Z" fill="#477EF6"/>
<path d="M47.7631 33.004H40.7151C39.7283 33.004 38.9531 33.6655 38.9531 34.5076V40.5221C38.9531 41.3641 39.7283 42.0258 40.7151 42.0258C44.9793 42.0258 48.5383 39.4395 49.3489 36.0113L47.7631 33.004Z" fill="#2767F4"/>
<path d="M19.57 33.004H12.522L10.9362 36.0113C11.7468 39.4395 15.3059 42.0258 19.57 42.0258C20.5568 42.0258 21.332 41.3641 21.332 40.5221V34.5076C21.332 33.6655 20.5568 33.004 19.57 33.004Z" fill="#2767F4"/>
<path d="M47.7632 23.9824H39.8694C38.6667 23.9824 37.9445 24.9384 38.1426 25.7265L38.1779 25.877L30.9535 22.6592C30.4603 22.4185 29.8259 22.4185 29.3326 22.6592L22.1083 25.877L22.1435 25.7265C22.343 24.9333 21.6118 23.9824 20.4168 23.9824H12.5231C11.5363 23.9824 10.7611 24.6439 10.7611 25.486V34.5077C10.7611 35.0189 10.8317 35.5301 10.9373 36.0114H49.349C49.4546 35.5301 49.5252 35.0189 49.5252 34.5077V25.486C49.5252 24.6439 48.75 23.9824 47.7632 23.9824Z" fill="#477EF6"/>
<path d="M49.3467 36.0113C49.4523 35.53 49.5229 35.0188 49.5229 34.5077V25.4859C49.5229 24.6438 48.7477 23.9823 47.7609 23.9823H39.8671C38.6644 23.9823 37.9423 24.9382 38.1404 25.7264L38.1756 25.8769L30.9513 22.6591C30.7048 22.5387 30.4226 22.4787 30.1409 22.4787V36.0113H49.3467Z" fill="#477EF6"/>
<path fill-rule="evenodd" clip-rule="evenodd" d="M36.4835 9.00591L36.4837 9.00591L47.1615 10.3291C47.8311 10.3893 48.3948 10.7803 48.6063 11.3216C48.7823 11.8929 48.6415 12.4944 48.1481 12.8854L40.4306 19.2908L40.4302 19.2909L40.4307 19.291L42.228 28.3728C42.3689 28.9442 42.0872 29.5156 41.5232 29.8466C41.0831 30.1751 40.2979 30.2627 39.6909 29.9667L30.1408 25.6965L20.5908 29.9666C19.9918 30.2372 19.2869 30.2073 18.7584 29.8465C18.1945 29.5156 17.9127 28.9442 18.0536 28.3727L19.8509 19.2909L19.851 19.2909L19.8509 19.2909L12.1333 12.8855C11.64 12.4945 11.499 11.893 11.6752 11.3216C11.8867 10.7803 12.4504 10.3893 13.1199 10.3291L23.7978 9.00591L23.798 9.00591L28.5548 0.766832C29.1538 -0.255529 31.1275 -0.255529 31.7265 0.766832L36.4835 9.00591Z" fill="#FFC24A"/>
<path fill-rule="evenodd" clip-rule="evenodd" d="M34.8439 10.625L34.8442 10.6247L31.3624 4.59431C30.924 3.84609 29.4795 3.84609 29.0412 4.59431L25.5595 10.6247L25.5596 10.6248L17.7449 11.5932C17.2549 11.6373 16.8423 11.9234 16.6876 12.3196C16.5586 12.7377 16.6618 13.178 17.0229 13.4641L22.671 18.152L22.6712 18.152L22.6699 18.1524L21.3546 24.799C21.2514 25.2172 21.4577 25.6354 21.8704 25.8775C22.2572 26.1416 22.7731 26.1635 23.2115 25.9655L30.2008 22.8403V16.084L30.2009 16.0839L30.2031 16.0857V22.8403L37.1925 25.9656C37.6368 26.1821 38.2114 26.1181 38.5335 25.8776C38.9462 25.6354 39.1524 25.2172 39.0493 24.799L37.7339 18.1524L37.7311 18.1517L43.379 13.464C43.7401 13.1779 43.8431 12.7377 43.7143 12.3196C43.5595 11.9234 43.147 11.6373 42.6569 11.5932L34.8439 10.625Z" fill="#FF9D29"/>
</svg>
