<svg width="40" height="44" viewBox="0 0 40 44" fill="none" xmlns="http://www.w3.org/2000/svg">
<path fill-rule="evenodd" clip-rule="evenodd" d="M33.3946 37C35.554 35.1335 39 30.5 39 24.2148V5.44972C38.4075 5.54522 37.8057 5.62056 37.1967 5.67513C36.4103 5.74526 35.6204 5.7818 34.8294 5.7818C32.6637 5.7818 30.566 5.51798 28.5792 5.02603C26.5294 4.51885 24.595 3.76609 22.8238 2.80692C22.2764 2.51075 21.7395 2.19085 21.2154 1.85029C20.8044 1.58288 20.3984 1.29881 20.0003 1C19.6054 1.2957 19.1996 1.57972 18.7838 1.85029C18.2769 2.18043 17.7394 2.49997 17.176 2.80508C15.4032 3.76426 13.4698 4.51738 11.4208 5.02453C9.43395 5.51648 7.33626 5.78039 5.17008 5.78039C4.37958 5.78039 3.58866 5.74439 2.80334 5.67372C2.19427 5.61887 1.59246 5.5438 1 5.4483V24.3277C1 29.0987 3.05317 33.4553 6.43743 36.7725C9.85175 40.1188 14.621 42.4091 20.0019 43C26.4529 42 29.137 40.6801 33.3946 37Z" fill="#2767F4" stroke="#2767F4" stroke-width="1.5" stroke-linecap="round" stroke-linejoin="round"/>
<path d="M20 10C16.9664 10 14.5 12.3018 14.5 15.1285V21H25.5V15.1285C25.5 12.3018 23.0336 10 20 10Z" stroke="#FF9D29" stroke-width="2.5"/>
<rect x="11" y="19" width="18" height="15" rx="2" fill="#FFC24A"/>
<path d="M21.0022 26.7212V28.9996C21.0022 29.5515 20.5551 30 20.0015 30C19.4479 30 19.0007 29.5515 19.0007 28.9996V26.7212C18.4051 26.3748 18 25.7373 18 24.9994C18 23.8969 18.8972 23 20 23C21.1028 23 22 23.8969 22 24.9994C22.0015 25.7358 21.5964 26.3748 21.0022 26.7212Z" fill="#CA7612"/>
</svg>
