<svg width="61" height="43" viewBox="0 0 61 43" fill="none" xmlns="http://www.w3.org/2000/svg">
<path d="M58.4497 42.0258H40.7129V39.0185L45.9989 34.5077V31.5004C45.9989 30.6693 46.787 29.9968 47.7609 29.9968H58.4497C59.1001 29.9968 59.6954 30.3023 60.0018 30.7912C60.3115 31.2802 60.2771 31.8734 59.9158 32.3346L57.0422 36.0114L59.9158 39.6883C60.2771 40.1494 60.3115 40.7426 60.0018 41.2316C59.6954 41.7204 59.1001 42.0258 58.4497 42.0258Z" fill="#477EF6"/>
<path d="M19.5689 42.026H1.83211C1.1817 42.026 0.586378 41.7206 0.280025 41.2316C-0.0297353 40.7426 0.00468248 40.1494 0.366011 39.6883L3.2396 36.0114L0.366011 32.3346C0.00468248 31.8734 -0.0297353 31.2802 0.280025 30.7912C0.586261 30.3023 1.1817 29.9968 1.83211 29.9968H12.5209C13.4948 29.9968 14.2829 30.6693 14.2829 31.5004V34.5077L19.5689 39.0185V42.026Z" fill="#477EF6"/>
<path d="M47.7634 33.004H40.7154C39.7285 33.004 38.9534 33.6655 38.9534 34.5076V40.5221C38.9534 41.3641 39.7285 42.0258 40.7154 42.0258C44.9795 42.0258 48.5385 39.4395 49.3492 36.0113L47.7634 33.004Z" fill="#2767F4"/>
<path d="M19.5701 33.004H12.5221L10.9363 36.0113C11.7469 39.4395 15.306 42.0258 19.5701 42.0258C20.5569 42.0258 21.3321 41.3641 21.3321 40.5221V34.5076C21.3321 33.6655 20.5569 33.004 19.5701 33.004Z" fill="#2767F4"/>
<path d="M47.7633 23.9824H39.8695C38.6668 23.9824 37.9446 24.9384 38.1428 25.7265L38.178 25.877L30.9537 22.6592C30.4604 22.4185 29.826 22.4185 29.3327 22.6592L22.1084 25.877L22.1437 25.7265C22.3431 24.9333 21.6119 23.9824 20.4169 23.9824H12.5232C11.5364 23.9824 10.7612 24.6439 10.7612 25.486V34.5077C10.7612 35.0189 10.8318 35.5301 10.9374 36.0114H49.3491C49.4547 35.5301 49.5253 35.0189 49.5253 34.5077V25.486C49.5253 24.6439 48.7501 23.9824 47.7633 23.9824Z" fill="#477EF6"/>
<path d="M49.3467 36.0113C49.4523 35.53 49.5229 35.0188 49.5229 34.5077V25.4859C49.5229 24.6438 48.7477 23.9823 47.7609 23.9823H39.8671C38.6644 23.9823 37.9423 24.9382 38.1404 25.7264L38.1756 25.8769L30.9513 22.6591C30.7048 22.5387 30.4226 22.4787 30.1409 22.4787V36.0113H49.3467Z" fill="#477EF6"/>
<path fill-rule="evenodd" clip-rule="evenodd" d="M36.4838 9.00591L36.4839 9.00591L47.1618 10.3291C47.8313 10.3893 48.3951 10.7803 48.6065 11.3216C48.7826 11.8929 48.6417 12.4944 48.1484 12.8854L40.4308 19.2908L40.4304 19.2909L40.4309 19.291L42.2283 28.3728C42.3691 28.9442 42.0874 29.5156 41.5235 29.8466C41.0833 30.1751 40.2982 30.2627 39.6911 29.9667L30.1411 25.6965L20.5911 29.9666C19.9921 30.2372 19.2872 30.2073 18.7587 29.8465C18.1947 29.5156 17.9129 28.9442 18.0539 28.3727L19.8511 19.2909L19.8512 19.2909L19.8512 19.2909L12.1336 12.8855C11.6402 12.4945 11.4993 11.893 11.6755 11.3216C11.8869 10.7803 12.4506 10.3893 13.1202 10.3291L23.798 9.00591L23.7982 9.00591L28.5551 0.766832C29.154 -0.255529 31.1277 -0.255529 31.7268 0.766832L36.4838 9.00591Z" fill="#FFC24A"/>
<path fill-rule="evenodd" clip-rule="evenodd" d="M34.844 10.625L34.8443 10.6247L31.3625 4.59431C30.9241 3.84609 29.4796 3.84609 29.0413 4.59431L25.5596 10.6247L25.5597 10.6248L17.745 11.5932C17.255 11.6373 16.8425 11.9234 16.6877 12.3196C16.5588 12.7377 16.6619 13.178 17.023 13.4641L22.6712 18.152L22.6713 18.152L22.6701 18.1524L21.3547 24.799C21.2516 25.2172 21.4578 25.6354 21.8705 25.8775C22.2573 26.1416 22.7732 26.1635 23.2116 25.9655L30.201 22.8403V16.084L30.2011 16.0839L30.2032 16.0857V22.8403L37.1926 25.9656C37.6369 26.1821 38.2115 26.1181 38.5336 25.8776C38.9464 25.6354 39.1525 25.2172 39.0494 24.799L37.734 18.1524L37.7312 18.1517L43.3791 13.464C43.7402 13.1779 43.8433 12.7377 43.7144 12.3196C43.5597 11.9234 43.1471 11.6373 42.6571 11.5932L34.844 10.625Z" fill="#FF9D29"/>
</svg>
