<svg width="32" height="32" viewBox="0 0 32 32" fill="none" xmlns="http://www.w3.org/2000/svg">
<path fill-rule="evenodd" clip-rule="evenodd" d="M16 0C7.16344 0 0 7.16344 0 16C0 24.8366 7.16344 32 16 32C24.8366 32 32 24.8366 32 16C32 7.16344 24.8366 0 16 0ZM9.5891 13.8717H12.3879V22.2809H9.5891V13.8717ZM12.5772 11.2803C12.5591 10.4558 11.9695 9.82781 11.012 9.82781C10.0546 9.82781 9.42863 10.4558 9.42863 11.2803C9.42863 12.0878 10.0361 12.7338 10.9757 12.7338H10.9936C11.9695 12.7338 12.5772 12.0878 12.5772 11.2803ZM19.2477 13.6852C21.0895 13.6852 22.4702 14.8873 22.4702 17.4703L22.4701 22.2918H19.6714V17.7929C19.6714 16.6629 19.2664 15.8918 18.2532 15.8918C17.48 15.8918 17.0194 16.4116 16.8172 16.9137C16.7432 17.0936 16.725 17.3443 16.725 17.5957V22.292H13.9259C13.9259 22.292 13.9628 14.6719 13.9259 13.8829H16.725V15.074C17.0965 14.5014 17.7618 13.6852 19.2477 13.6852Z" fill="white"/>
</svg>
