<svg width="108" height="20" viewBox="0 0 108 20" fill="none" xmlns="http://www.w3.org/2000/svg">
<path d="M31.1893 5.83486L31.1369 5.87778L30.7578 6.18453L29.708 4.88918L30.5655 4.20336C30.7078 4.10429 30.865 4.02863 31.0312 3.97926C31.2417 3.91912 31.4615 3.89811 31.6796 3.91727C31.8954 3.93644 32.1054 3.99744 32.2979 4.09687C32.4986 4.20091 32.6777 4.34223 32.8256 4.51329L31.1893 5.83486Z" fill="white"/>
<path d="M32.4661 0.00556285H14.998V0H12.3365C12.3441 0.225892 12.3943 0.448322 12.4843 0.65562C12.5715 0.853993 12.6965 1.03349 12.8523 1.18409C13.0096 1.3364 13.1936 1.45844 13.3951 1.54409C13.5554 1.60984 13.7252 1.64929 13.8981 1.66091L14.998 1.66567V1.66091H32.4661C32.8689 1.66112 33.2552 1.82113 33.5403 2.10584C33.8253 2.39056 33.9857 2.77671 33.9863 3.17956V16.8188C33.9857 17.2217 33.8253 17.6079 33.5403 17.8926C33.2552 18.1773 32.8689 18.3373 32.4661 18.3375H6.83807V18.3327H2.52051C2.5285 18.5576 2.57864 18.7789 2.66832 18.9852C2.75576 19.1834 2.8807 19.3629 3.03626 19.5136C3.19376 19.6657 3.3777 19.7877 3.57904 19.8736C3.73818 19.9403 3.9069 19.9814 4.0789 19.9952L6.83489 20V19.9936H32.4661C33.3084 19.9936 34.1164 19.6593 34.7124 19.064C35.3084 18.4687 35.6438 17.6612 35.6448 16.8188V3.18036C35.6438 2.33798 35.3084 1.53047 34.7124 0.935197C34.1164 0.339921 33.3084 0.0055622 32.4661 0.00556285Z" fill="white"/>
<path d="M2.66142 5.89967H4.19597C4.41559 5.89967 4.62621 5.81243 4.7815 5.65714C4.9368 5.50185 5.02404 5.29122 5.02404 5.07161C5.02404 4.85199 4.9368 4.64137 4.7815 4.48607C4.62621 4.33078 4.41559 4.24354 4.19597 4.24354H2.66142V4.23877H0C0.00759703 4.46466 0.057745 4.68709 0.147813 4.89439C0.235253 5.09261 0.360193 5.27206 0.515755 5.42286C0.673384 5.57474 0.857295 5.69672 1.05853 5.78286C1.21886 5.84879 1.38866 5.88876 1.56157 5.90126L2.66142 5.90603V5.89967Z" fill="white"/>
<path d="M3.03626 1.18409C3.19354 1.3364 3.37754 1.45844 3.57904 1.54409C3.73834 1.60951 3.9071 1.64895 4.0789 1.66091L5.17875 1.66567V1.66091H9.4979C9.71752 1.66091 9.92814 1.57366 10.0834 1.41837C10.2387 1.26308 10.326 1.05245 10.326 0.832837C10.326 0.613219 10.2387 0.402597 10.0834 0.247304C9.92814 0.0920108 9.71752 0.00476816 9.4979 0.00476816H5.18193V0H2.52051C2.5281 0.225892 2.57825 0.448322 2.66832 0.65562C2.7555 0.853993 2.88047 1.03349 3.03626 1.18409Z" fill="white"/>
<path d="M4.69399 8.47803H2.52051C2.5284 8.70311 2.57854 8.92471 2.66832 9.13126C2.75576 9.32949 2.8807 9.50894 3.03626 9.65973C3.19376 9.81178 3.3777 9.93378 3.57904 10.0197C3.73823 10.0862 3.90694 10.1269 4.0789 10.1405L5.17875 10.1453V10.1389H7.65501C7.87463 10.1389 8.08525 10.0517 8.24054 9.8964C8.39583 9.7411 8.48308 9.53048 8.48308 9.31086C8.48308 9.09125 8.39583 8.88062 8.24054 8.72533C8.08525 8.57004 7.87463 8.4828 7.65501 8.4828H5.18193V8.47803H4.69399Z" fill="white"/>
<path d="M9.30815 4.16431H6.64673C6.65421 4.3903 6.70465 4.6128 6.79534 4.81993C6.88228 5.01823 7.00698 5.19773 7.16248 5.3484C7.32011 5.50028 7.50402 5.62226 7.70526 5.70839C7.86659 5.77465 8.03749 5.81463 8.21148 5.8268L9.31133 5.83157V5.82601H10.7203L19.7242 14.2299C19.8702 14.3662 20.0607 14.4451 20.2603 14.452C20.46 14.4589 20.6555 14.3932 20.8105 14.2672L31.422 5.64084C31.5925 5.50227 31.701 5.30163 31.7236 5.08307C31.7462 4.86451 31.681 4.64594 31.5424 4.47543C31.4038 4.30492 31.2032 4.19644 30.9847 4.17386C30.7661 4.15129 30.5475 4.21645 30.377 4.35503L20.3258 12.5268L11.6088 4.39238C11.4558 4.24925 11.2541 4.1697 11.0446 4.16987H9.30815V4.16431Z" fill="white"/>
<path d="M45.5347 8.336C45.4349 8.33247 45.3355 8.35084 45.2435 8.38983C45.1515 8.42882 45.0692 8.48748 45.0023 8.56169C44.8703 8.717 44.7979 8.91417 44.7979 9.11798C44.7979 9.32178 44.8703 9.51895 45.0023 9.67426C45.0709 9.7455 45.1539 9.80143 45.2456 9.83841C45.3374 9.87539 45.4359 9.89257 45.5347 9.88883H49.3604C49.7816 9.88582 50.199 9.9694 50.5866 10.1344C51.16 10.3779 51.6485 10.7855 51.9907 11.3061C52.3329 11.8266 52.5135 12.4367 52.5098 13.0596C52.5126 13.4811 52.4293 13.8986 52.265 14.2866C51.9443 15.0425 51.3425 15.6443 50.5866 15.965C50.199 16.13 49.7816 16.2136 49.3604 16.2106H42.3027C42.313 15.882 42.3858 15.5583 42.5173 15.257C42.644 14.9694 42.8251 14.709 43.0505 14.4901C43.2789 14.2697 43.5455 14.0928 43.8373 13.968C44.1407 13.8377 44.4678 13.7714 44.7981 13.7733H49.3612C49.4535 13.774 49.545 13.7552 49.6296 13.7183C49.7142 13.6813 49.7901 13.6269 49.8523 13.5587C49.9838 13.4253 50.0572 13.2454 50.0565 13.0581C50.0597 12.8642 49.9863 12.6769 49.8523 12.5367C49.7901 12.4685 49.7142 12.4142 49.6296 12.3772C49.545 12.3402 49.4535 12.3215 49.3612 12.3222H45.5347C45.1022 12.3272 44.6734 12.2417 44.276 12.071C43.8971 11.907 43.5535 11.6712 43.2643 11.3765C42.9764 11.0809 42.747 10.7337 42.588 10.3529C42.4243 9.96108 42.341 9.54028 42.3433 9.11559C42.3404 8.69418 42.4237 8.27664 42.588 7.88859C42.7473 7.51415 42.9769 7.17371 43.2643 6.88569C43.5544 6.5971 43.898 6.36791 44.276 6.21099C44.6748 6.0455 45.1029 5.96199 45.5347 5.96543H52.5098C52.5118 6.28373 52.4417 6.59836 52.3047 6.88569C52.1711 7.16851 51.9878 7.42503 51.7635 7.64303C51.5391 7.86091 51.2753 8.03429 50.9863 8.15402C50.6915 8.27637 50.375 8.33826 50.0557 8.336H45.5347Z" fill="white"/>
<path d="M68.6944 13.8779C68.6395 14.0416 68.5791 14.2061 68.5108 14.369C68.4513 14.5179 68.3681 14.6561 68.2644 14.7783L67.9585 15.1256C67.859 15.2382 67.7491 15.3412 67.6303 15.4331C67.5222 15.5015 67.4094 15.5794 67.2941 15.6715C67.184 15.7561 67.0645 15.8278 66.9381 15.8853C66.7861 15.9266 66.6494 15.9674 66.528 16.0077C66.4049 16.049 66.2817 16.0824 66.1601 16.1102C65.9186 16.1691 65.6718 16.2034 65.4234 16.2127H54.1714V5.98267H56.6469V13.7349H59.3091C59.5824 13.7436 59.8502 13.6567 60.0664 13.4893C60.2348 13.2982 60.3225 13.0492 60.3112 12.7948V5.98267H62.7858V12.7948C62.7914 13.114 62.743 13.4318 62.6428 13.7349H65.4242C65.6909 13.7415 65.9515 13.6547 66.1609 13.4893C66.3213 13.2936 66.4079 13.0478 66.4057 12.7948V5.98267H68.8374V12.7948C68.841 13.1607 68.7928 13.5254 68.6944 13.8779Z" fill="white"/>
<path d="M78.2381 5.96177H82.5294V8.45789H78.2381V12.7532C78.2366 12.8951 78.2572 13.0364 78.2993 13.172C78.3275 13.2824 78.3821 13.3844 78.4582 13.4692C78.5521 13.5696 78.673 13.6408 78.8063 13.6742C78.9478 13.7031 79.0919 13.7167 79.2362 13.7148H82.5286V16.2101H79.2402C79.1169 16.2101 78.9938 16.1997 78.8723 16.1791C78.7493 16.1595 78.6127 16.1357 78.4622 16.1076C78.3525 16.0798 78.2309 16.0464 78.0943 16.0051C77.9576 15.9638 77.828 15.9256 77.7049 15.8827C77.5753 15.8238 77.452 15.7519 77.3369 15.6681C77.2137 15.5791 77.0985 15.5012 76.9896 15.4297C76.869 15.3366 76.7594 15.2299 76.663 15.1118C76.5661 14.9958 76.4651 14.8838 76.3547 14.7741C76.1552 14.5119 76.0093 14.213 75.9255 13.8944C75.8209 13.522 75.7727 13.1359 75.7825 12.7492V1.89136H78.2381V5.96177Z" fill="white"/>
<path d="M94.6274 13.7141C94.6297 14.0446 94.5634 14.3721 94.4327 14.6757C94.3087 14.9675 94.1323 15.2341 93.9122 15.4624C93.6894 15.6906 93.4254 15.8745 93.1342 16.0044C92.8393 16.14 92.5186 16.2099 92.194 16.2094H87.9822C87.8 16.2088 87.6185 16.188 87.441 16.1474C87.2566 16.1072 87.0487 16.0664 86.8171 16.025C86.6229 15.9557 86.4347 15.8704 86.2545 15.7699C86.0662 15.6649 85.8911 15.5377 85.7332 15.3909C85.5533 15.2648 85.3927 15.1133 85.2564 14.9411C85.1078 14.7548 84.9749 14.5565 84.859 14.3482C84.6413 13.9244 84.5327 13.379 84.5332 12.712V9.05004C84.5344 8.91297 84.5477 8.77628 84.5729 8.64156C84.6288 8.51628 84.6732 8.38622 84.7056 8.25296C84.739 8.11709 84.7906 7.98636 84.859 7.86436C84.9741 7.61007 85.1184 7.37005 85.289 7.14913C85.3986 7.04026 85.5003 6.93457 85.5965 6.83126C85.7059 6.71705 85.8296 6.61742 85.9644 6.53484C86.2144 6.32807 86.5082 6.18103 86.8235 6.10491C87.2032 6.00292 87.5954 5.95477 87.9885 5.96187H94.6369C94.6359 6.28666 94.5672 6.60767 94.4351 6.90437C94.1909 7.49185 93.724 7.95873 93.1365 8.20289C92.84 8.33226 92.5199 8.39857 92.1964 8.39759H87.9845C87.8349 8.39345 87.6857 8.41772 87.5451 8.46912C87.428 8.51789 87.315 8.57609 87.2073 8.64315C87.0405 8.85933 86.954 9.12677 86.9626 9.3997V12.7144C86.9626 13.0407 87.0646 13.2929 87.2685 13.4709C87.4338 13.6338 87.6714 13.7165 87.9838 13.7165L94.6274 13.7141Z" fill="white"/>
<path d="M107.761 8.41499C107.829 8.58104 107.87 8.7571 107.883 8.93631C107.898 9.12068 107.904 9.32809 107.904 9.56094V16.2085C107.566 16.2092 107.231 16.1394 106.922 16.0035C106.616 15.8731 106.339 15.686 106.103 15.452C105.868 15.2152 105.678 14.9379 105.542 14.6335C105.397 14.3192 105.323 13.9767 105.325 13.6306V9.56253C105.327 9.41866 105.317 9.2749 105.296 9.1326C105.274 9.00788 105.214 8.89325 105.123 8.80519C105.012 8.73706 104.896 8.67907 104.775 8.63194C104.637 8.58136 104.491 8.5571 104.345 8.56042H99.1251V13.6321C99.1271 13.9771 99.0573 14.3186 98.92 14.635C98.7907 14.9384 98.6073 15.2157 98.3788 15.4536C98.1508 15.6873 97.8796 15.8746 97.5802 16.0051C97.2749 16.1414 96.9442 16.2113 96.6099 16.2101V1.89137C96.943 1.89033 97.273 1.95627 97.5802 2.08527C97.8804 2.21034 98.1521 2.39498 98.3788 2.62805C98.6055 2.86309 98.7888 3.13646 98.92 3.43546C99.0579 3.74778 99.1278 4.08584 99.1251 4.42723V6.0031H104.341C104.464 6.00303 104.587 6.00966 104.709 6.02297C104.833 6.03727 104.968 6.05714 105.119 6.08496C105.386 6.15136 105.646 6.24015 105.897 6.35038C106.046 6.41952 106.183 6.48707 106.304 6.55462C106.433 6.62691 106.556 6.709 106.672 6.80018C106.916 7.00063 107.13 7.23506 107.308 7.49633C107.402 7.6286 107.484 7.76872 107.554 7.91513C107.632 8.0782 107.7 8.24503 107.761 8.41499Z" fill="white"/>
<path d="M73.1574 16.2103H70.5603V5.98267H73.1574V16.2103Z" fill="white"/>
<path d="M73.0413 4.41157H70.4451V2.10061H70.7312C71.0369 2.09914 71.3395 2.16168 71.6196 2.28418C71.8927 2.40197 72.1425 2.56777 72.3571 2.77371C72.5698 2.98099 72.7401 3.22769 72.8585 3.50006C72.9828 3.78771 73.045 4.09828 73.0413 4.41157Z" fill="white"/>
</svg>
