<svg width="32" height="32" viewBox="0 0 32 32" fill="none" xmlns="http://www.w3.org/2000/svg">
<path fill-rule="evenodd" clip-rule="evenodd" d="M16 0C7.16344 0 0 7.16344 0 16C0 24.8366 7.16344 32 16 32C24.8366 32 32 24.8366 32 16C32 7.16344 24.8366 0 16 0ZM15.6408 14.107L15.6149 13.6796C15.5371 12.5721 16.2196 11.5604 17.2994 11.1679C17.6968 11.0284 18.3706 11.011 18.8111 11.1331C18.9839 11.1854 19.3122 11.3598 19.5454 11.5168L19.9687 11.8046L20.4352 11.6563C20.6944 11.5778 21.0399 11.447 21.1954 11.3598C21.3422 11.2813 21.4718 11.2377 21.4718 11.2639C21.4718 11.4121 21.1522 11.918 20.8844 12.197C20.5216 12.5895 20.6252 12.6244 21.3595 12.3628C21.8001 12.2145 21.8087 12.2145 21.7223 12.3802C21.6705 12.4674 21.4027 12.7726 21.1176 13.0517C20.6339 13.5314 20.608 13.5837 20.608 13.9849C20.608 14.6041 20.3143 15.8948 20.0205 16.6012C19.4763 17.9269 18.3101 19.2961 17.1439 19.9851C15.5026 20.9531 13.317 21.1973 11.477 20.6304C10.8637 20.4386 9.80976 19.9502 9.80976 19.863C9.80976 19.8368 10.1294 19.8019 10.5181 19.7932C11.3301 19.7758 12.1422 19.549 12.8333 19.1478L13.2997 18.8688L12.7641 18.6856C12.004 18.424 11.3215 17.8222 11.1487 17.2553C11.0969 17.0722 11.1142 17.0635 11.5979 17.0635L12.099 17.0547L11.6757 16.8542C11.1746 16.6012 10.7168 16.1739 10.4922 15.7378C10.3281 15.4239 10.1207 14.6303 10.1812 14.5692C10.1985 14.543 10.3799 14.5954 10.5872 14.6651C11.1833 14.8832 11.261 14.8308 10.9155 14.4646C10.2676 13.8017 10.0689 12.8163 10.3799 11.8831L10.5268 11.4645L11.0969 12.0313C12.2631 13.1738 13.6366 13.8541 15.2089 14.0547L15.6408 14.107Z" fill="white"/>
</svg>
