<svg width="126" height="25" viewBox="0 0 126 25" fill="none" xmlns="http://www.w3.org/2000/svg">
<path d="M36.8676 7.71069L36.8073 7.76004L36.3714 8.1128L35.1641 6.62315L36.1502 5.83446C36.3138 5.72053 36.4946 5.63352 36.6858 5.57674C36.9279 5.50758 37.1807 5.48342 37.4315 5.50546C37.6797 5.5275 37.9212 5.59766 38.1425 5.712C38.3734 5.83164 38.5793 5.99417 38.7493 6.19088L36.8676 7.71069Z" fill="#0033CC"/>
<path d="M38.3353 1.0064H18.247V1H15.1864C15.1951 1.25978 15.2528 1.51557 15.3564 1.75396C15.4566 1.98209 15.6003 2.18851 15.7795 2.3617C15.9604 2.53687 16.172 2.67721 16.4037 2.7757C16.588 2.85131 16.7834 2.89668 16.9822 2.91004L18.247 2.91552V2.91004H38.3353C38.7986 2.91028 39.2429 3.0943 39.5707 3.42172C39.8984 3.74914 40.0829 4.19321 40.0836 4.65649V20.3417C40.0829 20.805 39.8984 21.249 39.5707 21.5765C39.2429 21.9039 38.7986 22.0879 38.3353 22.0881H8.86314V22.0826H3.89795C3.90714 22.3412 3.9648 22.5957 4.06793 22.833C4.16849 23.0609 4.31217 23.2673 4.49107 23.4407C4.67219 23.6156 4.88372 23.7559 5.11526 23.8547C5.29828 23.9314 5.4923 23.9786 5.6901 23.9945L8.85949 24V23.9927H38.3353C39.3041 23.9927 40.2332 23.6082 40.9186 22.9236C41.604 22.239 41.9897 21.3104 41.9909 20.3417V4.65741C41.9897 3.68868 41.604 2.76004 40.9186 2.07548C40.2332 1.39091 39.3041 1.0064 38.3353 1.0064Z" fill="#0033CC" stroke="#0033CC" stroke-width="0.5"/>
<path d="M4.06063 7.7848H5.82537C6.07793 7.7848 6.32014 7.68447 6.49873 7.50588C6.67732 7.32729 6.77765 7.08508 6.77765 6.83252C6.77765 6.57996 6.67732 6.33774 6.49873 6.15916C6.32014 5.98057 6.07793 5.88024 5.82537 5.88024H4.06063V5.87476H1C1.00874 6.13453 1.06641 6.39033 1.16998 6.62872C1.27054 6.85668 1.41422 7.06304 1.59312 7.23646C1.77439 7.41112 1.98589 7.5514 2.21731 7.65045C2.40169 7.72628 2.59696 7.77224 2.7958 7.78662L4.06063 7.79211V7.7848Z" fill="#0033CC" stroke="#0033CC" stroke-width="0.5"/>
<path d="M4.49107 2.3617C4.67194 2.53687 4.88353 2.67721 5.11526 2.7757C5.29845 2.85093 5.49253 2.89629 5.6901 2.91004L6.95493 2.91552V2.91004H11.9219C12.1745 2.91004 12.4167 2.80971 12.5953 2.63112C12.7739 2.45254 12.8742 2.21032 12.8742 1.95776C12.8742 1.7052 12.7739 1.46299 12.5953 1.2844C12.4167 1.10581 12.1745 1.00548 11.9219 1.00548H6.95858V1H3.89795C3.90669 1.25978 3.96436 1.51557 4.06793 1.75396C4.16819 1.98209 4.31191 2.18851 4.49107 2.3617Z" fill="#0033CC" stroke="#0033CC" stroke-width="0.5"/>
<path d="M6.39745 10.7495H3.89795C3.90703 11.0084 3.96469 11.2632 4.06793 11.5007C4.16849 11.7287 4.31217 11.9351 4.49107 12.1085C4.67219 12.2833 4.88372 12.4236 5.11526 12.5225C5.29833 12.5989 5.49235 12.6457 5.6901 12.6614L6.95493 12.6669V12.6596H9.80263C10.0552 12.6596 10.2974 12.5592 10.476 12.3806C10.6546 12.202 10.7549 11.9598 10.7549 11.7073C10.7549 11.4547 10.6546 11.2125 10.476 11.0339C10.2974 10.8553 10.0552 10.755 9.80263 10.755H6.95858V10.7495H6.39745Z" fill="#0033CC" stroke="#0033CC" stroke-width="0.5"/>
<path d="M11.7035 5.78882H8.64288C8.65149 6.04871 8.70949 6.30458 8.81378 6.54278C8.91376 6.77083 9.05717 6.97725 9.236 7.15052C9.41727 7.32519 9.62877 7.46546 9.86019 7.56452C10.0457 7.64072 10.2423 7.68669 10.4423 7.70069L11.7072 7.70617V7.69977H13.3275L23.6819 17.3642C23.8499 17.521 24.0689 17.6118 24.2985 17.6197C24.5282 17.6276 24.7529 17.5521 24.9312 17.4072L37.1345 7.48684C37.3306 7.32747 37.4553 7.09674 37.4813 6.8454C37.5072 6.59406 37.4323 6.34269 37.2729 6.14661C37.1136 5.95052 36.8828 5.82578 36.6315 5.79981C36.3802 5.77385 36.1288 5.84879 35.9327 6.00815L24.3738 15.4057L14.3492 6.05111C14.1733 5.8865 13.9413 5.79502 13.7004 5.79522H11.7035V5.78882Z" fill="#0033CC" stroke="#0033CC" stroke-width="0.5"/>
<path d="M53.3653 10.5869C53.2505 10.5828 53.1362 10.6039 53.0304 10.6488C52.9246 10.6936 52.8299 10.7611 52.753 10.8464C52.6012 11.025 52.5179 11.2518 52.5179 11.4861C52.5179 11.7205 52.6012 11.9473 52.753 12.1259C52.8319 12.2078 52.9273 12.2721 53.0328 12.3146C53.1383 12.3572 53.2516 12.3769 53.3653 12.3726H57.7648C58.2492 12.3692 58.7292 12.4653 59.1749 12.655C59.8343 12.935 60.3962 13.4038 60.7897 14.0024C61.1832 14.601 61.3909 15.3027 61.3866 16.0191C61.3899 16.5037 61.2941 16.9839 61.1051 17.4301C60.7363 18.2994 60.0442 18.9914 59.1749 19.3603C58.7292 19.55 58.2492 19.6461 57.7648 19.6426H49.6485C49.6603 19.2647 49.744 18.8925 49.8953 18.546C50.041 18.2153 50.2492 17.9158 50.5085 17.6641C50.7711 17.4107 51.0777 17.2072 51.4132 17.0636C51.7622 16.9138 52.1384 16.8376 52.5181 16.8397H57.7657C57.8719 16.8405 57.9771 16.819 58.0744 16.7765C58.1717 16.734 58.2589 16.6714 58.3305 16.593C58.4817 16.4396 58.5661 16.2326 58.5654 16.0172C58.569 15.7943 58.4846 15.5789 58.3305 15.4177C58.2589 15.3393 58.1717 15.2767 58.0744 15.2342C57.9771 15.1917 57.8719 15.1702 57.7657 15.171H53.3653C52.8679 15.1768 52.3748 15.0784 51.9177 14.8822C51.482 14.6935 51.0869 14.4223 50.7543 14.0834C50.4233 13.7435 50.1594 13.3442 49.9766 12.9063C49.7883 12.4557 49.6925 11.9718 49.6951 11.4834C49.6918 10.9988 49.7876 10.5186 49.9766 10.0723C50.1598 9.64174 50.4238 9.25023 50.7543 8.919C51.0879 8.58712 51.4831 8.32356 51.9177 8.14311C52.3764 7.95279 52.8687 7.85675 53.3653 7.86071H61.3866C61.3889 8.22676 61.3083 8.58857 61.1508 8.919C60.9972 9.24425 60.7864 9.53925 60.5284 9.78995C60.2703 10.0405 59.967 10.2399 59.6346 10.3776C59.2955 10.5183 58.9316 10.5895 58.5645 10.5869H53.3653Z" fill="#231F20"/>
<path d="M79.9989 16.9602C79.9359 17.1484 79.8664 17.3376 79.7878 17.525C79.7194 17.6961 79.6237 17.855 79.5045 17.9956L79.1527 18.395C79.0383 18.5245 78.9119 18.6429 78.7752 18.7487C78.6509 18.8273 78.5212 18.9168 78.3886 19.0228C78.2619 19.1201 78.1246 19.2025 77.9792 19.2687C77.8044 19.3162 77.6472 19.3631 77.5076 19.4094C77.366 19.4569 77.2243 19.4953 77.0845 19.5273C76.8068 19.595 76.523 19.6345 76.2373 19.6452H63.2975V7.88062H66.1443V16.7957H69.2058C69.5201 16.8056 69.8281 16.7058 70.0768 16.5133C70.2704 16.2935 70.3713 16.0072 70.3582 15.7145V7.88062H73.2041V15.7145C73.2105 16.0816 73.1549 16.4471 73.0396 16.7957H76.2382C76.5449 16.8033 76.8446 16.7034 77.0854 16.5133C77.2699 16.2882 77.3695 16.0055 77.3669 15.7145V7.88062H80.1634V15.7145C80.1675 16.1354 80.1121 16.5548 79.9989 16.9602Z" fill="#231F20"/>
<path d="M90.9739 7.857H95.909V10.7275H90.9739V15.6671C90.9722 15.8304 90.9959 15.9929 91.0443 16.1488C91.0768 16.2758 91.1395 16.393 91.2271 16.4906C91.3351 16.606 91.4741 16.6878 91.6274 16.7263C91.79 16.7595 91.9558 16.7751 92.1218 16.773H95.9081V19.6426H92.1263C91.9846 19.6426 91.843 19.6307 91.7032 19.6069C91.5619 19.5844 91.4047 19.557 91.2316 19.5247C91.1055 19.4927 90.9657 19.4543 90.8085 19.4068C90.6513 19.3593 90.5024 19.3154 90.3607 19.2661C90.2117 19.1983 90.0699 19.1156 89.9376 19.0193C89.7959 18.917 89.6634 18.8274 89.5382 18.7451C89.3994 18.638 89.2734 18.5154 89.1626 18.3796C89.0511 18.2462 88.935 18.1173 88.808 17.9912C88.5786 17.6897 88.4109 17.3459 88.3145 16.9795C88.1942 16.5512 88.1387 16.1073 88.15 15.6626V3.17603H90.9739V7.857Z" fill="#231F20"/>
<path d="M109.821 16.773C109.824 17.1531 109.748 17.5297 109.597 17.8788C109.455 18.2144 109.252 18.5211 108.999 18.7836C108.743 19.046 108.439 19.2575 108.104 19.4069C107.765 19.5628 107.396 19.6432 107.023 19.6426H102.179C101.97 19.642 101.761 19.6181 101.557 19.5714C101.345 19.5251 101.106 19.4781 100.839 19.4306C100.616 19.3508 100.4 19.2527 100.192 19.1373C99.9758 19.0165 99.7745 18.8701 99.5929 18.7013C99.3861 18.5563 99.2014 18.3821 99.0445 18.1841C98.8736 17.9698 98.7208 17.7418 98.5876 17.5023C98.3372 17.0149 98.2123 16.3877 98.2129 15.6206V11.4094C98.2142 11.2517 98.2295 11.0945 98.2586 10.9396C98.3228 10.7955 98.3739 10.646 98.4112 10.4927C98.4495 10.3365 98.5089 10.1861 98.5876 10.0458C98.7199 9.7534 98.8858 9.47737 99.082 9.22332C99.2081 9.09812 99.3251 8.97657 99.4357 8.85777C99.5615 8.72642 99.7037 8.61185 99.8588 8.51688C100.146 8.2791 100.484 8.11001 100.847 8.02247C101.283 7.90518 101.734 7.8498 102.187 7.85796H109.832C109.831 8.23147 109.752 8.60064 109.6 8.94184C109.319 9.61745 108.782 10.1544 108.107 10.4351C107.766 10.5839 107.398 10.6602 107.026 10.6591H102.182C102.01 10.6543 101.838 10.6822 101.677 10.7413C101.542 10.7974 101.412 10.8643 101.288 10.9414C101.096 11.1901 100.997 11.4976 101.007 11.8115V15.6233C101.007 15.9986 101.124 16.2886 101.359 16.4934C101.549 16.6807 101.822 16.7758 102.181 16.7758L109.821 16.773Z" fill="#231F20"/>
<path d="M124.923 10.6782C125.002 10.8692 125.049 11.0716 125.063 11.2777C125.08 11.4897 125.088 11.7283 125.088 11.996V19.6408C124.699 19.6415 124.314 19.5612 123.958 19.405C123.607 19.2551 123.288 19.0398 123.017 18.7707C122.747 18.4985 122.528 18.1796 122.372 17.8294C122.205 17.468 122.12 17.0742 122.122 16.6761V11.9979C122.124 11.8324 122.113 11.6671 122.088 11.5035C122.063 11.36 121.994 11.2282 121.889 11.1269C121.762 11.0486 121.628 10.9819 121.489 10.9277C121.331 10.8695 121.163 10.8416 120.994 10.8454H114.992V16.6779C114.994 17.0746 114.914 17.4674 114.756 17.8313C114.607 18.1801 114.397 18.499 114.134 18.7726C113.872 19.0414 113.56 19.2568 113.215 19.4068C112.864 19.5636 112.484 19.6439 112.099 19.6426V3.17604C112.483 3.17484 112.862 3.25067 113.215 3.39903C113.561 3.54285 113.873 3.7552 114.134 4.02322C114.395 4.29352 114.605 4.60789 114.756 4.95174C114.915 5.31091 114.995 5.69968 114.992 6.09228V7.90453H120.991C121.132 7.90445 121.273 7.91207 121.414 7.92738C121.556 7.94383 121.711 7.96668 121.885 7.99866C122.191 8.07502 122.49 8.17714 122.779 8.3039C122.951 8.38341 123.108 8.46109 123.248 8.53878C123.396 8.62191 123.538 8.71632 123.671 8.82117C123.952 9.05168 124.198 9.32129 124.402 9.62174C124.51 9.77385 124.605 9.93499 124.686 10.1034C124.774 10.2909 124.854 10.4827 124.923 10.6782Z" fill="#231F20"/>
<path d="M85.1323 19.6424H82.1457V7.88062H85.1323V19.6424Z" fill="#231F20"/>
<path d="M84.9988 6.07292H82.0131V3.41531H82.3421C82.6937 3.41363 83.0417 3.48554 83.3639 3.62642C83.6779 3.76188 83.9652 3.95255 84.212 4.18938C84.4566 4.42775 84.6524 4.71146 84.7886 5.02468C84.9315 5.35547 85.0031 5.71263 84.9988 6.07292Z" fill="#231F20"/>
</svg>
