<svg width="32" height="32" viewBox="0 0 32 32" fill="none" xmlns="http://www.w3.org/2000/svg">
<path fill-rule="evenodd" clip-rule="evenodd" d="M0 16C0 7.16344 7.16344 0 16 0C24.8366 0 32 7.16344 32 16C32 24.8366 24.8366 32 16 32C7.16344 32 0 24.8366 0 16Z" fill="white"/>
<path d="M12.9284 8.63269C13.7193 8.5967 13.972 8.58789 15.9859 8.58789H15.9837C17.9981 8.58789 18.2499 8.5967 19.0409 8.63269C19.8303 8.66884 20.3694 8.79381 20.8421 8.97718C21.3303 9.16642 21.7427 9.41977 22.1552 9.83223C22.5677 10.2444 22.821 10.6581 23.011 11.1458C23.1933 11.6173 23.3184 12.1561 23.3555 12.9455C23.391 13.7364 23.4003 13.9892 23.4003 16.003C23.4003 18.0168 23.391 18.2689 23.3555 19.0598C23.3184 19.8489 23.1933 20.3879 23.011 20.8595C22.821 21.3471 22.5677 21.7608 22.1552 22.1729C21.7432 22.5854 21.3301 22.8394 20.8426 23.0288C20.3708 23.2121 19.8313 23.3371 19.0419 23.3732C18.251 23.4092 17.999 23.418 15.9851 23.418C13.9714 23.418 13.7188 23.4092 12.9279 23.3732C12.1387 23.3371 11.5997 23.2121 11.1279 23.0288C10.6405 22.8394 10.2268 22.5854 9.81481 22.1729C9.4025 21.7608 9.14915 21.3471 8.9596 20.8594C8.77639 20.3879 8.65142 19.8491 8.61511 19.0597C8.57927 18.2687 8.57031 18.0168 8.57031 16.003C8.57031 13.9892 8.57958 13.7363 8.6148 12.9453C8.65033 12.1562 8.77546 11.6173 8.9593 11.1456C9.14931 10.6581 9.40265 10.2444 9.81512 9.83223C10.2273 9.41992 10.641 9.16658 11.1287 8.97718C11.6001 8.79381 12.139 8.66884 12.9284 8.63269Z" fill="#231F20"/>
<circle cx="19.9656" cy="12.0202" r="1.04631" fill="white"/>
<circle cx="16" cy="16" r="3" fill="white"/>
</svg>
