<svg width="108" height="20" viewBox="0 0 108 20" fill="none" xmlns="http://www.w3.org/2000/svg">
<path d="M31.1894 5.83486L31.1369 5.87778L30.7579 6.18453L29.7081 4.88918L30.5655 4.20336C30.7078 4.10429 30.865 4.02863 31.0312 3.97926C31.2418 3.91912 31.4616 3.89811 31.6797 3.91727C31.8955 3.93644 32.1055 3.99744 32.298 4.09687C32.4987 4.20091 32.6778 4.34223 32.8256 4.51329L31.1894 5.83486Z" fill="white"/>
<path d="M32.4661 0.00556285H14.998V0H12.3366C12.3442 0.225892 12.3943 0.448322 12.4844 0.65562C12.5716 0.853993 12.6966 1.03349 12.8524 1.18409C13.0096 1.3364 13.1936 1.45844 13.3951 1.54409C13.5554 1.60984 13.7253 1.64929 13.8982 1.66091L14.998 1.66567V1.66091H32.4661C32.869 1.66112 33.2553 1.82113 33.5403 2.10584C33.8253 2.39056 33.9857 2.77671 33.9864 3.17956V16.8188C33.9857 17.2217 33.8253 17.6079 33.5403 17.8926C33.2553 18.1773 32.869 18.3373 32.4661 18.3375H6.83813V18.3327H2.52057C2.52856 18.5576 2.5787 18.7789 2.66838 18.9852C2.75582 19.1834 2.88076 19.3629 3.03632 19.5136C3.19382 19.6657 3.37776 19.7877 3.5791 19.8736C3.73824 19.9403 3.90696 19.9814 4.07896 19.9952L6.83495 20V19.9936H32.4661C33.3085 19.9936 34.1164 19.6593 34.7125 19.064C35.3085 18.4687 35.6438 17.6612 35.6449 16.8188V3.18036C35.6438 2.33798 35.3085 1.53047 34.7125 0.935197C34.1164 0.339921 33.3085 0.0055622 32.4661 0.00556285Z" fill="white"/>
<path d="M2.66142 5.89967H4.19597C4.41559 5.89967 4.62621 5.81243 4.7815 5.65714C4.9368 5.50185 5.02404 5.29122 5.02404 5.07161C5.02404 4.85199 4.9368 4.64137 4.7815 4.48607C4.62621 4.33078 4.41559 4.24354 4.19597 4.24354H2.66142V4.23877H0C0.00759703 4.46466 0.057745 4.68709 0.147813 4.89439C0.235253 5.09261 0.360193 5.27206 0.515755 5.42286C0.673384 5.57474 0.857295 5.69672 1.05853 5.78286C1.21886 5.84879 1.38866 5.88876 1.56157 5.90126L2.66142 5.90603V5.89967Z" fill="white"/>
<path d="M3.03632 1.18409C3.1936 1.3364 3.3776 1.45844 3.5791 1.54409C3.7384 1.60951 3.90716 1.64895 4.07896 1.66091L5.17881 1.66567V1.66091H9.49796C9.71758 1.66091 9.9282 1.57366 10.0835 1.41837C10.2388 1.26308 10.326 1.05245 10.326 0.832837C10.326 0.613219 10.2388 0.402597 10.0835 0.247304C9.9282 0.0920108 9.71758 0.00476816 9.49796 0.00476816H5.18199V0H2.52057C2.52817 0.225892 2.57831 0.448322 2.66838 0.65562C2.75556 0.853993 2.88053 1.03349 3.03632 1.18409Z" fill="white"/>
<path d="M4.69405 8.47803H2.52057C2.52846 8.70311 2.57861 8.92471 2.66838 9.13126C2.75582 9.32949 2.88076 9.50894 3.03632 9.65973C3.19382 9.81178 3.37776 9.93378 3.5791 10.0197C3.73829 10.0862 3.907 10.1269 4.07896 10.1405L5.17881 10.1453V10.1389H7.65507C7.87469 10.1389 8.08531 10.0517 8.2406 9.8964C8.3959 9.7411 8.48314 9.53048 8.48314 9.31086C8.48314 9.09125 8.3959 8.88062 8.2406 8.72533C8.08531 8.57004 7.87469 8.4828 7.65507 8.4828H5.18199V8.47803H4.69405Z" fill="white"/>
<path d="M9.30821 4.16431H6.64679C6.65427 4.3903 6.70471 4.6128 6.7954 4.81993C6.88234 5.01823 7.00704 5.19773 7.16254 5.3484C7.32017 5.50028 7.50408 5.62226 7.70532 5.70839C7.86665 5.77465 8.03756 5.81463 8.21154 5.8268L9.31139 5.83157V5.82601H10.7204L19.7242 14.2299C19.8703 14.3662 20.0607 14.4451 20.2604 14.452C20.4601 14.4589 20.6555 14.3932 20.8106 14.2672L31.4221 5.64084C31.5926 5.50227 31.7011 5.30163 31.7237 5.08307C31.7462 4.86451 31.6811 4.64594 31.5425 4.47543C31.4039 4.30492 31.2033 4.19644 30.9847 4.17386C30.7662 4.15129 30.5476 4.21645 30.3771 4.35503L20.3258 12.5268L11.6088 4.39238C11.4558 4.24925 11.2541 4.1697 11.0446 4.16987H9.30821V4.16431Z" fill="white"/>
<path d="M45.5346 8.336C45.4348 8.33247 45.3354 8.35084 45.2434 8.38983C45.1514 8.42882 45.0691 8.48748 45.0022 8.56169C44.8702 8.717 44.7977 8.91417 44.7977 9.11798C44.7977 9.32178 44.8702 9.51895 45.0022 9.67426C45.0708 9.7455 45.1537 9.80143 45.2455 9.83841C45.3372 9.87539 45.4358 9.89257 45.5346 9.88883H49.3603C49.7815 9.88582 50.1989 9.9694 50.5865 10.1344C51.1599 10.3779 51.6484 10.7855 51.9906 11.3061C52.3328 11.8266 52.5134 12.4367 52.5096 13.0596C52.5125 13.4811 52.4292 13.8986 52.2649 14.2866C51.9442 15.0425 51.3424 15.6443 50.5865 15.965C50.1989 16.13 49.7815 16.2136 49.3603 16.2106H42.3026C42.3128 15.882 42.3857 15.5583 42.5172 15.257C42.6439 14.9694 42.825 14.709 43.0504 14.4901C43.2788 14.2697 43.5454 14.0928 43.8372 13.968C44.1406 13.8377 44.4677 13.7714 44.7979 13.7733H49.3611C49.4534 13.774 49.5448 13.7552 49.6295 13.7183C49.7141 13.6813 49.79 13.6269 49.8522 13.5587C49.9837 13.4253 50.0571 13.2454 50.0564 13.0581C50.0596 12.8642 49.9862 12.6769 49.8522 12.5367C49.79 12.4685 49.7141 12.4142 49.6295 12.3772C49.5448 12.3402 49.4534 12.3215 49.3611 12.3222H45.5346C45.1021 12.3272 44.6733 12.2417 44.2758 12.071C43.8969 11.907 43.5534 11.6712 43.2642 11.3765C42.9763 11.0809 42.7469 10.7337 42.5879 10.3529C42.4241 9.96108 42.3409 9.54028 42.3431 9.11559C42.3403 8.69418 42.4236 8.27664 42.5879 7.88859C42.7472 7.51415 42.9768 7.17371 43.2642 6.88569C43.5543 6.5971 43.8979 6.36791 44.2758 6.21099C44.6747 6.0455 45.1028 5.96199 45.5346 5.96543H52.5096C52.5117 6.28373 52.4416 6.59836 52.3046 6.88569C52.171 7.16851 51.9877 7.42503 51.7634 7.64303C51.5389 7.86091 51.2752 8.03429 50.9862 8.15402C50.6913 8.27637 50.3749 8.33826 50.0556 8.336H45.5346Z" fill="white"/>
<path d="M68.6944 13.8779C68.6396 14.0416 68.5792 14.2061 68.5109 14.369C68.4514 14.5179 68.3682 14.6561 68.2645 14.7783L67.9586 15.1256C67.8591 15.2382 67.7492 15.3412 67.6303 15.4331C67.5223 15.5015 67.4094 15.5794 67.2942 15.6715C67.184 15.7561 67.0646 15.8278 66.9382 15.8853C66.7861 15.9266 66.6494 15.9674 66.5281 16.0077C66.4049 16.049 66.2818 16.0824 66.1602 16.1102C65.9187 16.1691 65.6719 16.2034 65.4235 16.2127H54.1714V5.98267H56.6469V13.7349H59.3091C59.5824 13.7436 59.8502 13.6567 60.0665 13.4893C60.2348 13.2982 60.3226 13.0492 60.3112 12.7948V5.98267H62.7859V12.7948C62.7915 13.114 62.7431 13.4318 62.6429 13.7349H65.4243C65.691 13.7415 65.9516 13.6547 66.161 13.4893C66.3213 13.2936 66.408 13.0478 66.4057 12.7948V5.98267H68.8375V12.7948C68.841 13.1607 68.7929 13.5254 68.6944 13.8779Z" fill="white"/>
<path d="M78.2381 5.96177H82.5294V8.45789H78.2381V12.7532C78.2366 12.8951 78.2572 13.0364 78.2993 13.172C78.3275 13.2824 78.3821 13.3844 78.4582 13.4692C78.5521 13.5696 78.673 13.6408 78.8063 13.6742C78.9478 13.7031 79.0919 13.7167 79.2362 13.7148H82.5286V16.2101H79.2402C79.1169 16.2101 78.9938 16.1997 78.8723 16.1791C78.7493 16.1595 78.6127 16.1357 78.4622 16.1076C78.3525 16.0798 78.2309 16.0464 78.0943 16.0051C77.9576 15.9638 77.828 15.9256 77.7049 15.8827C77.5753 15.8238 77.452 15.7519 77.3369 15.6681C77.2137 15.5791 77.0985 15.5012 76.9896 15.4297C76.869 15.3366 76.7594 15.2299 76.663 15.1118C76.5661 14.9958 76.4651 14.8838 76.3547 14.7741C76.1552 14.5119 76.0093 14.213 75.9255 13.8944C75.8209 13.522 75.7727 13.1359 75.7825 12.7492V1.89136H78.2381V5.96177Z" fill="white"/>
<path d="M94.6275 13.7141C94.6299 14.0446 94.5635 14.3721 94.4328 14.6757C94.3088 14.9675 94.1324 15.2341 93.9123 15.4624C93.6895 15.6906 93.4255 15.8745 93.1343 16.0044C92.8394 16.14 92.5187 16.2099 92.1942 16.2094H87.9823C87.8002 16.2088 87.6187 16.188 87.4411 16.1474C87.2567 16.1072 87.0488 16.0664 86.8173 16.025C86.623 15.9557 86.4348 15.8704 86.2546 15.7699C86.0663 15.6649 85.8913 15.5377 85.7333 15.3909C85.5535 15.2648 85.3929 15.1133 85.2565 14.9411C85.1079 14.7548 84.975 14.5565 84.8591 14.3482C84.6414 13.9244 84.5328 13.379 84.5333 12.712V9.05004C84.5345 8.91297 84.5478 8.77628 84.5731 8.64156C84.6289 8.51628 84.6733 8.38622 84.7058 8.25296C84.7391 8.11709 84.7907 7.98636 84.8591 7.86436C84.9742 7.61007 85.1185 7.37005 85.2891 7.14913C85.3987 7.04026 85.5005 6.93457 85.5966 6.83126C85.706 6.71705 85.8297 6.61742 85.9646 6.53484C86.2145 6.32807 86.5083 6.18103 86.8236 6.10491C87.2034 6.00292 87.5955 5.95477 87.9886 5.96187H94.637C94.6361 6.28666 94.5673 6.60767 94.4352 6.90437C94.191 7.49185 93.7241 7.95873 93.1367 8.20289C92.8402 8.33226 92.52 8.39857 92.1965 8.39759H87.9847C87.835 8.39345 87.6859 8.41772 87.5452 8.46912C87.4281 8.51789 87.3152 8.57609 87.2075 8.64315C87.0406 8.85933 86.9541 9.12677 86.9627 9.3997V12.7144C86.9627 13.0407 87.0647 13.2929 87.2686 13.4709C87.4339 13.6338 87.6716 13.7165 87.9839 13.7165L94.6275 13.7141Z" fill="white"/>
<path d="M107.761 8.41499C107.829 8.58104 107.87 8.7571 107.882 8.93631C107.898 9.12068 107.904 9.32809 107.904 9.56094V16.2085C107.566 16.2092 107.231 16.1394 106.922 16.0035C106.616 15.8731 106.339 15.686 106.103 15.452C105.868 15.2152 105.678 14.9379 105.542 14.6335C105.397 14.3192 105.323 13.9767 105.325 13.6306V9.56253C105.327 9.41866 105.317 9.2749 105.296 9.1326C105.274 9.00788 105.213 8.89325 105.123 8.80519C105.012 8.73706 104.895 8.67907 104.774 8.63194C104.637 8.58136 104.491 8.5571 104.345 8.56042H99.125V13.6321C99.1271 13.9771 99.0572 14.3186 98.92 14.635C98.7906 14.9384 98.6072 15.2157 98.3788 15.4536C98.1507 15.6873 97.8795 15.8746 97.5801 16.0051C97.2749 16.1414 96.9441 16.2113 96.6098 16.2101V1.89137C96.943 1.89033 97.273 1.95627 97.5801 2.08527C97.8803 2.21034 98.152 2.39498 98.3788 2.62805C98.6055 2.86309 98.7887 3.13646 98.92 3.43546C99.0578 3.74778 99.1277 4.08584 99.125 4.42723V6.0031H104.341C104.464 6.00303 104.587 6.00966 104.709 6.02297C104.832 6.03727 104.968 6.05714 105.119 6.08496C105.385 6.15136 105.645 6.24015 105.897 6.35038C106.046 6.41952 106.183 6.48707 106.304 6.55462C106.433 6.62691 106.556 6.709 106.672 6.80018C106.916 7.00063 107.13 7.23506 107.308 7.49633C107.402 7.6286 107.484 7.76872 107.554 7.91513C107.631 8.0782 107.7 8.24503 107.761 8.41499Z" fill="white"/>
<path d="M73.1573 16.2103H70.5602V5.98267H73.1573V16.2103Z" fill="white"/>
<path d="M73.0414 4.41157H70.4451V2.10061H70.7312C71.0369 2.09914 71.3396 2.16168 71.6197 2.28418C71.8928 2.40197 72.1426 2.56777 72.3572 2.77371C72.5699 2.98099 72.7402 3.22769 72.8586 3.50006C72.9828 3.78771 73.0451 4.09828 73.0414 4.41157Z" fill="white"/>
</svg>
